<?xml version="1.0" encoding="UTF-8"?>
<svg id="Layer_1" data-name="Layer 1" xmlns="http://www.w3.org/2000/svg" xmlns:xlink="http://www.w3.org/1999/xlink" viewBox="0 0 2494.35 2200.94">
  <defs>
    <style>
      .cls-1 {
        fill: url(#radial-gradient);
        stroke: #231f20;
        stroke-miterlimit: 10;
        stroke-width: 2px;
      }
    </style>
    <radialGradient id="radial-gradient" cx="1324.16" cy="1184.63" fx="1324.16" fy="1184.63" r="1249.11" gradientTransform="translate(1.46 -13.99) scale(.94)" gradientUnits="userSpaceOnUse">
      <stop offset="0" stop-color="#faf287"/>
      <stop offset=".02" stop-color="#faea72"/>
      <stop offset=".07" stop-color="#fbdd50"/>
      <stop offset=".12" stop-color="#fcd336"/>
      <stop offset=".17" stop-color="#fccc23"/>
      <stop offset=".23" stop-color="#fcc817"/>
      <stop offset=".28" stop-color="#fdc714"/>
      <stop offset=".67" stop-color="#fee544"/>
      <stop offset=".89" stop-color="#ed693c"/>
      <stop offset="1" stop-color="#bd3227"/>
    </radialGradient>
  </defs>
  <path class="cls-1" d="M1303.13,1249.95v78.91c31.55-9.04,175.71-46.67,310.74,34.34,54.94,32.96,90.32,74.72,111.48,105.28,8.54,109.53,17.09,219.05,25.64,328.58-32.96,137.08-83.34,199.98-140.98,217.75-106.23,32.75-167.69-109.19-356.22-137.24-195.48-29.08-291.74,99.37-396.51,30.97-73.88-48.24-129.89-131.11-132.17-216.76-2.61-98.43,59.38-202.56,141.15-241.91,44.61-21.47,87.41-19.95,103.54-55.71,12.3-27.28,3.56-63.98-18.58-86.7-29.78-30.57-81.23-33.24-105.28-12.39-18.41,15.96-17.57,42.92-18.58,55.74-8.84,112.6-246.49,240.7-303.64,192.33-66-55.85,100.13-275.13,75.52-489.26-14.65-127.51-71.78-159.76-92.98-235.22,0,0-6.8-40.19-7.72-74.43-5.33-197.04,278.13-544.94,489.84-489.6,102.9,26.9,200.59,152.13,179.6,216.76-6.37,19.6-22.6,30.4-18.58,49.55,7.34,34.98,77.4,74.58,124.07,43.55,39.15-26.03,39.74-87.05,18.37-117.86-12.6-18.17-28.52-19.61-49.55-30.97-56.32-30.43-94.64-102.53-92.9-154.83,2.98-89.55,125.36-180.37,222.95-167.21,115.32,15.54,114.12,165.21,265.36,217.1,101.02,34.66,145.28-13.51,226.58,12.39,74.9,23.86,160.43,113.91,203.52,407.84h88.15V4.02h-96.64c-14.7,47.57-33.35,82.97-55.96,106.23-22.61,23.29-52.55,34.9-89.85,34.9-35.06,0-123.77-24.01-266.19-72.08C1504.89,25.04,1361.88,1,1218.36,1c-358.34,0-652.77,108.76-883.36,326.27C112.32,538.73,1,799.24,1,1108.82s107.38,561.48,322.15,764.84c230.57,217.55,538.58,326.28,924.02,326.28,212.5,0,404.65-21.24,576.47-63.74,171.8-42.48,296.13-84.97,373.01-127.47v-396.09c0-107.22,19.48-180.32,58.49-219.29,38.99-38.93,118.39-60.43,238.22-64.49v-78.91h-1190.23Z"/>
</svg>