<svg id="Layer_1" data-name="Layer 1" xmlns="http://www.w3.org/2000/svg" viewBox="0 0 389.8 94.51"><defs><style>.cls-1,.cls-2{fill:#231f20;}.cls-1{fill-rule:evenodd;}</style></defs><path class="cls-1" d="M197.59,240h-6.17l-.74,1.7a3.83,3.83,0,0,0-.36,1.4,1.18,1.18,0,0,0,.59,1.09,5,5,0,0,0,1.72.31V245h-5.82v-.47a2.65,2.65,0,0,0,1.55-.78,10.87,10.87,0,0,0,1.5-2.64l6.25-13.95h.24l6.31,14.34a8.52,8.52,0,0,0,1.48,2.56,2,2,0,0,0,1.24.47V245h-8.46v-.47h.35a2.64,2.64,0,0,0,1.43-.29.67.67,0,0,0,.28-.59,1.64,1.64,0,0,0-.07-.48c0-.07-.15-.4-.39-1l-.93-2.18Zm-.44-1-2.6-6-2.68,6Z" transform="translate(-46 -197.99)"/><path class="cls-2" d="M216.09,232.91v9.44a3.48,3.48,0,0,0,.26,1.72,1.47,1.47,0,0,0,1,.43V245h-4.91v-1.61a6.18,6.18,0,0,1-1.73,1.51,4,4,0,0,1-1.93.46,2.92,2.92,0,0,1-1.82-.61,3.15,3.15,0,0,1-1.05-1.47,10.87,10.87,0,0,1-.27-2.93v-4.78a3.38,3.38,0,0,0-.26-1.7,1.49,1.49,0,0,0-1-.44v-.48h4.92v8.24a7.14,7.14,0,0,0,.11,1.66,1.21,1.21,0,0,0,.39.57,1,1,0,0,0,.62.19,1.47,1.47,0,0,0,.83-.24,5.33,5.33,0,0,0,1.24-1.36v-6.44a3.27,3.27,0,0,0-.26-1.7,1.47,1.47,0,0,0-1-.44v-.48Z" transform="translate(-46 -197.99)"/><path class="cls-2" d="M225.83,232.58l.19,4.11h-.44a6.39,6.39,0,0,0-1.63-2.5,2.68,2.68,0,0,0-1.68-.67,1.25,1.25,0,0,0-.9.36,1,1,0,0,0-.12,1.48,13,13,0,0,0,2.31,1.82,9.22,9.22,0,0,1,2.49,2.18,3.48,3.48,0,0,1,.6,2,4.19,4.19,0,0,1-.5,2,3.56,3.56,0,0,1-1.42,1.48,4.07,4.07,0,0,1-2,.51,7,7,0,0,1-2.31-.54,2.05,2.05,0,0,0-.53-.14c-.28,0-.52.22-.71.65h-.42l-.21-4.34H219a5.6,5.6,0,0,0,1.59,2.56,3.1,3.1,0,0,0,1.92.85,1.38,1.38,0,0,0,1-.38,1.21,1.21,0,0,0,.4-.92,1.57,1.57,0,0,0-.39-1.07,9.77,9.77,0,0,0-1.72-1.37,13.6,13.6,0,0,1-2.56-2.09,3.66,3.66,0,0,1-.85-2.33,3.78,3.78,0,0,1,1-2.52,3.46,3.46,0,0,1,2.78-1.13,4,4,0,0,1,1.9.48,1.22,1.22,0,0,0,.56.19.71.71,0,0,0,.38-.09,3,3,0,0,0,.45-.55Z" transform="translate(-46 -197.99)"/><path class="cls-2" d="M232.21,228.5v4.41h2.86v1.28h-2.86v7.43a6.26,6.26,0,0,0,.09,1.36,1,1,0,0,0,.35.49.77.77,0,0,0,.45.18c.56,0,1.09-.43,1.59-1.28l.38.29a3.51,3.51,0,0,1-3.39,2.47,3,3,0,0,1-1.94-.63,2.88,2.88,0,0,1-1-1.43,11.74,11.74,0,0,1-.13-2.37v-6.51H227v-.45a17,17,0,0,0,2.76-2.41,14.67,14.67,0,0,0,2-2.83Z" transform="translate(-46 -197.99)"/><path class="cls-2" d="M241,232.91v2.73a8.74,8.74,0,0,1,2.1-2.47,3.11,3.11,0,0,1,1.74-.62A1.52,1.52,0,0,1,246,233a1.7,1.7,0,0,1,.43,1.25,2,2,0,0,1-.42,1.34,1.29,1.29,0,0,1-1,.48,1.74,1.74,0,0,1-1.18-.44c-.34-.29-.54-.45-.6-.49a.55.55,0,0,0-.29-.08,1.08,1.08,0,0,0-.71.29,2.68,2.68,0,0,0-.8,1.25,8.6,8.6,0,0,0-.41,2.76v3.49a3,3,0,0,0,.09.94,1.05,1.05,0,0,0,.45.52,3,3,0,0,0,1,.19V245H236v-.46a1.37,1.37,0,0,0,1.06-.43,3.91,3.91,0,0,0,.28-1.94v-6.67a5,5,0,0,0-.1-1.31,1.08,1.08,0,0,0-.37-.53,2.05,2.05,0,0,0-.87-.23v-.48Z" transform="translate(-46 -197.99)"/><path class="cls-1" d="M253,243.19a6.34,6.34,0,0,1-3.95,1.94,2.35,2.35,0,0,1-1.72-.67,2.31,2.31,0,0,1-.68-1.7,3.3,3.3,0,0,1,1.19-2.48,22.63,22.63,0,0,1,5.16-2.93v-1.22a5.68,5.68,0,0,0-.15-1.71,1.29,1.29,0,0,0-.55-.62,1.68,1.68,0,0,0-.93-.27,2.37,2.37,0,0,0-1.38.37.67.67,0,0,0-.34.55,1.13,1.13,0,0,0,.36.67,1.62,1.62,0,0,1,.49,1.07,1.45,1.45,0,0,1-.47,1.08,1.73,1.73,0,0,1-1.23.44,2,2,0,0,1-1.36-.49,1.52,1.52,0,0,1-.55-1.15,2.66,2.66,0,0,1,.74-1.77,4.65,4.65,0,0,1,2.05-1.3,8.4,8.4,0,0,1,2.73-.45,4.47,4.47,0,0,1,2.71.74,3.36,3.36,0,0,1,1.3,1.57,10.26,10.26,0,0,1,.18,2.49V242a4.35,4.35,0,0,0,.07,1,.57.57,0,0,0,.19.31.45.45,0,0,0,.3.1c.22,0,.45-.16.68-.48l.39.31a4.91,4.91,0,0,1-1.35,1.4,2.88,2.88,0,0,1-1.55.42,2.48,2.48,0,0,1-1.62-.48,2.23,2.23,0,0,1-.71-1.46Zm0-.95v-4a7.51,7.51,0,0,0-2.32,2,2.4,2.4,0,0,0-.5,1.4,1.46,1.46,0,0,0,.43,1.05,1.16,1.16,0,0,0,.9.35,2.42,2.42,0,0,0,1.49-.73Z" transform="translate(-46 -197.99)"/><path class="cls-2" d="M263.48,227.48v15a2.89,2.89,0,0,0,.3,1.64,1.6,1.6,0,0,0,1.16.4V245h-6.51v-.46a1.58,1.58,0,0,0,1.18-.46,2.93,2.93,0,0,0,.26-1.58V230a2.79,2.79,0,0,0-.3-1.61,1.58,1.58,0,0,0-1.14-.41v-.48Z" transform="translate(-46 -197.99)"/><path class="cls-1" d="M269,227.07a2,2,0,0,1,2,2,1.89,1.89,0,0,1-.59,1.41,1.93,1.93,0,0,1-1.4.58,2,2,0,0,1-1.41-3.4,1.93,1.93,0,0,1,1.41-.59Zm1.8,5.84v9.55a2.89,2.89,0,0,0,.3,1.64,1.6,1.6,0,0,0,1.16.4V245h-6.51v-.46a1.57,1.57,0,0,0,1.18-.46,2.83,2.83,0,0,0,.26-1.58v-7a2.79,2.79,0,0,0-.3-1.62,1.53,1.53,0,0,0-1.14-.41v-.48Z" transform="translate(-46 -197.99)"/><path class="cls-1" d="M279.29,243.19a6.39,6.39,0,0,1-4,1.94,2.33,2.33,0,0,1-1.71-.67,2.28,2.28,0,0,1-.68-1.7,3.32,3.32,0,0,1,1.18-2.48,22.53,22.53,0,0,1,5.17-2.93v-1.22a5.24,5.24,0,0,0-.16-1.71,1.24,1.24,0,0,0-.55-.62,1.64,1.64,0,0,0-.93-.27,2.37,2.37,0,0,0-1.38.37.68.68,0,0,0-.33.55,1.13,1.13,0,0,0,.36.67,1.62,1.62,0,0,1,.49,1.07,1.43,1.43,0,0,1-.48,1.08,1.72,1.72,0,0,1-1.22.44,2,2,0,0,1-1.37-.49,1.51,1.51,0,0,1-.54-1.15,2.65,2.65,0,0,1,.73-1.77,4.71,4.71,0,0,1,2-1.3,8.42,8.42,0,0,1,2.74-.45,4.44,4.44,0,0,1,2.7.74,3.39,3.39,0,0,1,1.31,1.57,10.26,10.26,0,0,1,.18,2.49V242a5.29,5.29,0,0,0,.06,1,.63.63,0,0,0,.19.31.47.47,0,0,0,.3.1c.22,0,.45-.16.68-.48l.39.31a4.89,4.89,0,0,1-1.34,1.4,2.94,2.94,0,0,1-1.56.42,2.45,2.45,0,0,1-1.61-.48,2.19,2.19,0,0,1-.71-1.46Zm0-.95v-4a7.51,7.51,0,0,0-2.32,2,2.33,2.33,0,0,0-.5,1.4,1.49,1.49,0,0,0,.42,1.05,1.19,1.19,0,0,0,.9.35,2.46,2.46,0,0,0,1.5-.73Z" transform="translate(-46 -197.99)"/><path class="cls-2" d="M289.71,232.91v1.56a7.16,7.16,0,0,1,1.78-1.46,3.71,3.71,0,0,1,1.83-.46,2.87,2.87,0,0,1,1.94.66,3,3,0,0,1,1,1.61,12.24,12.24,0,0,1,.21,2.82v4.69a3.59,3.59,0,0,0,.25,1.74,1.47,1.47,0,0,0,1.05.43V245h-6.09v-.46a1.25,1.25,0,0,0,1-.57,3.61,3.61,0,0,0,.21-1.6V237a9.53,9.53,0,0,0-.11-1.87,1.15,1.15,0,0,0-.4-.59.94.94,0,0,0-.61-.22c-.74,0-1.43.53-2.06,1.59v6.45a3.75,3.75,0,0,0,.24,1.72,1.31,1.31,0,0,0,.94.45V245H284.8v-.46a1.49,1.49,0,0,0,1.08-.49,3.72,3.72,0,0,0,.22-1.68v-6.8a3.38,3.38,0,0,0-.26-1.7,1.47,1.47,0,0,0-1-.44v-.48Z" transform="translate(-46 -197.99)"/><path class="cls-2" d="M321.54,227.08v6.17h-.48a7.7,7.7,0,0,0-2.59-3.84,6.08,6.08,0,0,0-3.77-1.32,4.83,4.83,0,0,0-3.26,1.11,5.9,5.9,0,0,0-1.85,3.07,15.19,15.19,0,0,0-.54,4,15,15,0,0,0,.59,4.41,5,5,0,0,0,1.91,2.79,5.57,5.57,0,0,0,3.15.89,7.23,7.23,0,0,0,1.29-.13,10.9,10.9,0,0,0,1.36-.4v-3.64a3.89,3.89,0,0,0-.14-1.32,1.24,1.24,0,0,0-.59-.56,2.2,2.2,0,0,0-1.07-.24h-.45v-.48h8.49v.48a3.56,3.56,0,0,0-1.35.27,1.28,1.28,0,0,0-.58.65,3.59,3.59,0,0,0-.12,1.2v3.64a16.91,16.91,0,0,1-3.49,1.12,17.66,17.66,0,0,1-3.75.39,11.21,11.21,0,0,1-4.14-.67,10.76,10.76,0,0,1-2.9-1.78,8.56,8.56,0,0,1-2-2.49,8.69,8.69,0,0,1-.9-4,9,9,0,0,1,2.77-6.67,9.56,9.56,0,0,1,7-2.72,12,12,0,0,1,2.35.21,11.14,11.14,0,0,1,1.83.59,7.63,7.63,0,0,0,1.51.48,1,1,0,0,0,.67-.26,2.48,2.48,0,0,0,.56-1Z" transform="translate(-46 -197.99)"/><path class="cls-1" d="M329.91,232.55a5.57,5.57,0,0,1,2.92.81,5.07,5.07,0,0,1,2.05,2.31,7.45,7.45,0,0,1,.71,3.27,6.93,6.93,0,0,1-1.3,4.3,5.14,5.14,0,0,1-4.34,2.08,5,5,0,0,1-4.19-1.9,7,7,0,0,1-1.47-4.42,7.18,7.18,0,0,1,1.49-4.52,5,5,0,0,1,4.13-1.93Zm0,.92a1.47,1.47,0,0,0-1.13.5,3.46,3.46,0,0,0-.62,2c-.1,1-.14,2.32-.14,4.06a17.42,17.42,0,0,0,.18,2.58,2.45,2.45,0,0,0,.6,1.39,1.49,1.49,0,0,0,2,.15,2.24,2.24,0,0,0,.67-1.22,30.34,30.34,0,0,0,.25-4.95,12.51,12.51,0,0,0-.24-3,2.35,2.35,0,0,0-.72-1.19,1.38,1.38,0,0,0-.88-.27Z" transform="translate(-46 -197.99)"/><path class="cls-2" d="M341.28,245.32,337.22,236a8.88,8.88,0,0,0-1.15-2.14,1.54,1.54,0,0,0-.87-.45v-.48h6.4v.48a1.13,1.13,0,0,0-.82.22.87.87,0,0,0-.31.67,5.75,5.75,0,0,0,.57,1.79l2,4.52,1.59-3.9a7.71,7.71,0,0,0,.68-2.37.81.81,0,0,0-.3-.65,1.66,1.66,0,0,0-1-.28v-.48h3.95v.48a1.61,1.61,0,0,0-.93.42,8.13,8.13,0,0,0-1.08,2.05l-4,9.46Z" transform="translate(-46 -197.99)"/><path class="cls-1" d="M357.4,238.51h-6.61a6.18,6.18,0,0,0,1.28,3.78,2.67,2.67,0,0,0,2.14,1.08,2.49,2.49,0,0,0,1.4-.43,5.49,5.49,0,0,0,1.35-1.56l.44.28a7.29,7.29,0,0,1-2.16,2.84,4.7,4.7,0,0,1-2.75.82,4.56,4.56,0,0,1-4.06-2.06,7.26,7.26,0,0,1-1.11-4.12,6.83,6.83,0,0,1,1.63-4.8,5,5,0,0,1,3.82-1.79,4.13,4.13,0,0,1,3.18,1.51,6.83,6.83,0,0,1,1.45,4.45Zm-3.17-.87a11.89,11.89,0,0,0-.23-2.85,2.34,2.34,0,0,0-.7-1.17,1.09,1.09,0,0,0-.72-.23,1.25,1.25,0,0,0-1.09.66,5.59,5.59,0,0,0-.77,3.14v.45Z" transform="translate(-46 -197.99)"/><path class="cls-2" d="M363.12,232.91v2.73a8.74,8.74,0,0,1,2.1-2.47,3.11,3.11,0,0,1,1.74-.62,1.52,1.52,0,0,1,1.15.45,1.7,1.7,0,0,1,.44,1.25,2,2,0,0,1-.43,1.34,1.27,1.27,0,0,1-1,.48,1.75,1.75,0,0,1-1.19-.44l-.59-.49a.61.61,0,0,0-.3-.08,1.08,1.08,0,0,0-.71.29,2.68,2.68,0,0,0-.8,1.25,8.88,8.88,0,0,0-.41,2.76v3.49a3,3,0,0,0,.09.94,1.16,1.16,0,0,0,.45.52,3,3,0,0,0,1,.19V245H358.2v-.46a1.36,1.36,0,0,0,1.05-.43,3.87,3.87,0,0,0,.29-1.94v-6.67a4.83,4.83,0,0,0-.11-1.31,1,1,0,0,0-.37-.53,2,2,0,0,0-.86-.23v-.48Z" transform="translate(-46 -197.99)"/><path class="cls-2" d="M374.23,232.91v1.56A7.16,7.16,0,0,1,376,233a3.77,3.77,0,0,1,1.83-.46,2.91,2.91,0,0,1,2,.66,3.08,3.08,0,0,1,1,1.61,12.24,12.24,0,0,1,.21,2.82v4.69a3.77,3.77,0,0,0,.24,1.74,1.48,1.48,0,0,0,1.06.43V245h-6.1v-.46a1.27,1.27,0,0,0,1-.57,3.61,3.61,0,0,0,.21-1.6V237a8.5,8.5,0,0,0-.12-1.87,1.1,1.1,0,0,0-.4-.59.92.92,0,0,0-.61-.22c-.73,0-1.42.53-2.06,1.59v6.45a3.57,3.57,0,0,0,.25,1.72,1.29,1.29,0,0,0,.94.45V245h-6.1v-.46a1.45,1.45,0,0,0,1.08-.49,3.57,3.57,0,0,0,.22-1.68v-6.8a3.42,3.42,0,0,0-.25-1.7,1.52,1.52,0,0,0-1.05-.44v-.48Z" transform="translate(-46 -197.99)"/><path class="cls-2" d="M388.2,232.91v1.59A6.59,6.59,0,0,1,390,233a4,4,0,0,1,1.86-.44,3.1,3.1,0,0,1,3.15,2.19,7.7,7.7,0,0,1,2-1.67,4,4,0,0,1,2-.52,3.1,3.1,0,0,1,2,.58,2.87,2.87,0,0,1,1,1.46,9.79,9.79,0,0,1,.3,2.81v4.93a3.69,3.69,0,0,0,.24,1.73,1.52,1.52,0,0,0,1.06.44V245h-6.23v-.46a1.35,1.35,0,0,0,1.08-.57,3.31,3.31,0,0,0,.24-1.6v-5.18a10,10,0,0,0-.13-2.05,1.2,1.2,0,0,0-.42-.64,1,1,0,0,0-.64-.22,1.94,1.94,0,0,0-1.12.41,5.19,5.19,0,0,0-1.15,1.21v6.47a3.62,3.62,0,0,0,.22,1.64,1.32,1.32,0,0,0,1.13.53V245h-6.23v-.46a1.36,1.36,0,0,0,.78-.25,1,1,0,0,0,.39-.54,5.61,5.61,0,0,0,.1-1.38v-5.18a9.14,9.14,0,0,0-.13-2.05,1.18,1.18,0,0,0-.44-.64,1,1,0,0,0-.64-.23,1.72,1.72,0,0,0-.94.27,5.16,5.16,0,0,0-1.29,1.36v6.47a3.65,3.65,0,0,0,.25,1.69,1.31,1.31,0,0,0,1.05.48V245h-6.21v-.46a1.47,1.47,0,0,0,1.08-.49,3.57,3.57,0,0,0,.22-1.68v-6.8a3.38,3.38,0,0,0-.26-1.7,1.47,1.47,0,0,0-1-.44v-.48Z" transform="translate(-46 -197.99)"/><path class="cls-1" d="M414.34,238.51h-6.61a6.18,6.18,0,0,0,1.28,3.78,2.67,2.67,0,0,0,2.14,1.08,2.49,2.49,0,0,0,1.4-.43,5.65,5.65,0,0,0,1.36-1.56l.43.28a7.29,7.29,0,0,1-2.16,2.84,4.7,4.7,0,0,1-2.75.82,4.56,4.56,0,0,1-4.06-2.06,7.26,7.26,0,0,1-1.11-4.12,6.83,6.83,0,0,1,1.63-4.8,5,5,0,0,1,3.83-1.79,4.11,4.11,0,0,1,3.17,1.51,6.83,6.83,0,0,1,1.45,4.45Zm-3.17-.87a11.89,11.89,0,0,0-.23-2.85,2.34,2.34,0,0,0-.7-1.17,1.09,1.09,0,0,0-.72-.23,1.26,1.26,0,0,0-1.09.66,5.59,5.59,0,0,0-.76,3.14v.45Z" transform="translate(-46 -197.99)"/><path class="cls-2" d="M419.72,232.91v1.56A7.16,7.16,0,0,1,421.5,233a3.77,3.77,0,0,1,1.83-.46,2.91,2.91,0,0,1,1.95.66,3.15,3.15,0,0,1,1,1.61,13.05,13.05,0,0,1,.2,2.82v4.69a3.59,3.59,0,0,0,.25,1.74,1.48,1.48,0,0,0,1.06.43V245h-6.1v-.46a1.28,1.28,0,0,0,1-.57,3.83,3.83,0,0,0,.2-1.6V237a8.76,8.76,0,0,0-.11-1.87,1.1,1.1,0,0,0-.4-.59.92.92,0,0,0-.61-.22c-.74,0-1.42.53-2.06,1.59v6.45a3.75,3.75,0,0,0,.24,1.72,1.34,1.34,0,0,0,1,.45V245h-6.1v-.46a1.45,1.45,0,0,0,1.08-.49,3.57,3.57,0,0,0,.22-1.68v-6.8a3.38,3.38,0,0,0-.26-1.7,1.47,1.47,0,0,0-1-.44v-.48Z" transform="translate(-46 -197.99)"/><path class="cls-2" d="M432.94,228.5v4.41h2.86v1.28h-2.86v7.43A6.26,6.26,0,0,0,433,243a1.08,1.08,0,0,0,.35.49.77.77,0,0,0,.45.18c.56,0,1.09-.43,1.59-1.28l.38.29a3.51,3.51,0,0,1-3.39,2.47,3,3,0,0,1-1.94-.63,2.88,2.88,0,0,1-1-1.43,11.74,11.74,0,0,1-.13-2.37v-6.51h-1.57v-.45a17,17,0,0,0,2.76-2.41,15.16,15.16,0,0,0,2-2.83Z" transform="translate(-46 -197.99)"/><path class="cls-2" d="M89.46,273.73a.87.87,0,0,1-.33.33" transform="translate(-46 -197.99)"/><path class="cls-2" d="M92.48,250.13a.64.64,0,0,0,.63-.64.63.63,0,0,0-1.26,0,.64.64,0,0,0,.63.64Z" transform="translate(-46 -197.99)"/><path class="cls-2" d="M121.72,223.47H99v18.36c0,1.78.76,3.33,1.79,3.8l8.75,5.23a1.06,1.06,0,0,0,.8.36,1.07,1.07,0,0,0,.71-.28l8.88-5.31c1-.47,1.79-2,1.79-3.8l0-18.36Zm-15.18,5.31h-2v-4.7h2v4.7Zm-1.43,1.64.28-.29-.18-.32.37,0,.22-.39.22.38.37,0-.17.32.28.29-.36.07v.4l-.34-.25-.33.25v-.4l-.36-.07Zm-5.49,5.85v-4.46H102v4.46Zm.39-6.46.37,0,.22-.39.22.38.37,0-.17.32.28.29-.36.07v.4l-.34-.25-.33.25v-.4l-.36-.07.28-.29-.18-.32Zm2.7,4.54.37,0,.22-.39.22.38.37,0-.18.32.28.29-.35.07v.4l-.34-.25-.34.25V235l-.35-.07.27-.29-.17-.32Zm1.59-3.59c0-.12-.18-.15-.24-.15-.22,0-.3.35-.48.36s-.23,0-.23-.14.28-.21.38-.32c-1.48,0-1.5.68-1.73.68-.39,0,.32-.71.52-.92-.29-.05-.47-.42-.79-.6.15-.22.24-.13.43,0,0-.16.11-.34.46-.34.66,0,.47.64.58.64s0-.64.43-.64c.66,0,1.48,1.68.73,1.68-.31,0-.06-.23-.06-.28Zm-1.69-4.92.27-.29-.17-.32.37,0,.22-.39.22.38.37,0-.18.32.28.29-.35.07v.4l-.34-.25-.34.25v-.4l-.35-.07Zm-.6-1.76v4.7H99.62v-4.7Zm4.53,24.27-5.44-3.25a3.92,3.92,0,0,1-1.48-3V236.9h6.92v11.45Zm-2-12.08v-4.46h2v4.46Zm9,12.45-2.52,1.5h0a1.08,1.08,0,0,1-.66.23,1,1,0,0,1-.67-.24l-2.5-1.49V236.9h6.39v11.82Zm0-12.45h-6.39V224.08h6.39v12.19Zm7.53,5.8a3.91,3.91,0,0,1-1.47,3l-5.45,3.25V236.9h6.92v5.17Zm0-5.8h-6.92V224.08h6.92v12.19Z" transform="translate(-46 -197.99)"/><path class="cls-2" d="M106.17,241.1c0-.07-.87.28-.63.26,0-.25.49-.75.69-.94,0-.29-.41,0-.8.18,1.3-1.85.47-1.09-.26-1,1.16-1.25.86-1.23,0-.84.67-.53.82-1.16.71-1.35-.62.84-1.2.71-1.2,1.49a3.1,3.1,0,0,1-.45,1.63c-.34.37-.08-1.37-1-1.37-.29,0-1,0-1.16.33.18,0,.45.46.45.64s.17.69-.14.69-.65-.64-.65-1,0-.23,0-.67a2.49,2.49,0,0,0-1.68-1.77c0,.51.66.64.66,1.29-.28,0-.68-.53-.68-.2s.42.38.42.67-.49-.1-.49.2.27.23.33.49c-.19,0-.37,0-.4.07s0,.21.2.29c-.07.06-.13.22-.13.65,0,1.44.91,2.12,1.58,2.12.48,0,.4-.33.46-.49,0,.24.25-.12.25.31s-.46.25-.46.64.73,0,.73.55a7.45,7.45,0,0,1-.08.95c0,.18.76-.26.71-.34.18.07.18.61.52.6s.26-.56.44-.6c-.11,0,.69.51.69.27,0-.68-.28-.39-.28-.86s.94-.34.79-.56-.21-.07-.31-.39c0,.06-.74-1.08.16-.49s1-1.43,1-1.54Z" transform="translate(-46 -197.99)"/><path class="cls-2" d="M130.43,245.91a.67.67,0,1,0-.75-.66.71.71,0,0,0,.75.66Z" transform="translate(-46 -197.99)"/><path class="cls-2" d="M127.41,247.71a.67.67,0,1,0-.75-.66.71.71,0,0,0,.75.66Z" transform="translate(-46 -197.99)"/><path class="cls-2" d="M91.46,251.85a.67.67,0,1,0-.75-.66.71.71,0,0,0,.75.66Z" transform="translate(-46 -197.99)"/><path class="cls-2" d="M93.79,252.05a.67.67,0,1,0-.75-.66.72.72,0,0,0,.75.66Z" transform="translate(-46 -197.99)"/><path class="cls-2" d="M158.51,220.68a4.7,4.7,0,0,1,.55,5c-.44,0-.36-.6-.44-.92-.79-1.48-1.42-3.36-.71-5,.52.08.32.71.6,1Z" transform="translate(-46 -197.99)"/><path class="cls-2" d="M63.55,222.48a7,7,0,0,0,0,3.16c-.2.2-.16-.2-.36-.16-1.55-1.12-.83-3.32-1.23-4.88a.32.32,0,0,1,.4-.08,2.87,2.87,0,0,1,1.19,2Z" transform="translate(-46 -197.99)"/><path class="cls-2" d="M161.92,222.6c.23.44-.2.88-.52,1.08a1,1,0,0,1-1-.44.92.92,0,0,1,.48-1,1,1,0,0,1,1,.4Z" transform="translate(-46 -197.99)"/><path class="cls-2" d="M61.13,224.36a1.19,1.19,0,0,1-.52.88c-.24,0-.59,0-.75-.2a.73.73,0,0,1-.16-.84.91.91,0,0,1,.75-.36c.28.12.56.2.68.52Z" transform="translate(-46 -197.99)"/><path class="cls-2" d="M163.46,225a.88.88,0,0,1,0,.64.89.89,0,0,1-1.07.36,1.06,1.06,0,0,1-.43-.68,1.19,1.19,0,0,1,.67-.72,1.26,1.26,0,0,1,.83.4Z" transform="translate(-46 -197.99)"/><path class="cls-2" d="M161.2,225.08c.32.16.08.56,0,.8-.2.2-.47.52-.83.4-.2-.2-.44-.2-.52-.48a.88.88,0,0,1,.56-.92c.32-.08.51.08.75.2Z" transform="translate(-46 -197.99)"/><path class="cls-2" d="M158.31,225.68c0,.44,0,1-.48,1.08a.75.75,0,0,1-.91-.56,1,1,0,0,1,.59-1,1.09,1.09,0,0,1,.8.44Z" transform="translate(-46 -197.99)"/><path class="cls-2" d="M65.45,225.88c.12.4-.28.64-.51.84a.81.81,0,0,1-.8-.44c-.28-.28.08-.52.16-.76a.74.74,0,0,1,1.15.36Z" transform="translate(-46 -197.99)"/><path class="cls-2" d="M63.07,226a.81.81,0,0,1-.44.76.72.72,0,0,1-.79-.36.68.68,0,0,1,.36-.92c.43-.16.71.24.87.52Z" transform="translate(-46 -197.99)"/><path class="cls-2" d="M148.71,226.16a8.45,8.45,0,0,1,.79,2.87c-.16.76.12,1.76-.44,2.28-.55-.2-.59-.88-.95-1.24-.71-1.4-.08-3,.16-4.39.32-.12.32.28.44.48Z" transform="translate(-46 -197.99)"/><path class="cls-2" d="M61.21,226.64c.11.48-.24.72-.52,1-.48.12-.79-.24-1-.56a1,1,0,0,1,.51-1,1,1,0,0,1,1,.52Z" transform="translate(-46 -197.99)"/><path class="cls-2" d="M155,227.79a5.73,5.73,0,0,1,.2,3.84l-.24.2a15.83,15.83,0,0,1-1.62-3.24,5.28,5.28,0,0,1,.48-2.27c.27-.2.43,0,.55.28a1.56,1.56,0,0,0,.63,1.19Z" transform="translate(-46 -197.99)"/><path class="cls-2" d="M160,227.08a1,1,0,0,1-.59,1,.73.73,0,0,1-.92-.48.89.89,0,0,1,.44-1c.44-.24.87.16,1.07.48Z" transform="translate(-46 -197.99)"/><path class="cls-2" d="M63.11,228.31a.86.86,0,0,1-.6.76c-.31.24-.55-.16-.83-.28a.92.92,0,0,1,0-.91c.12-.24.4-.24.64-.32.35.2.71.36.79.75Z" transform="translate(-46 -197.99)"/><path class="cls-2" d="M64.85,228.12c.16.4-.27.59-.43.79-.48.16-.72-.2-.91-.48a.87.87,0,0,1,.43-.87c.48-.12.72.2.91.56Z" transform="translate(-46 -197.99)"/><path class="cls-2" d="M161.08,228c0,.53-.83,1-.91,1.56a4,4,0,0,1-2.46,2.24,1.88,1.88,0,0,1-.91.52c-.08-.8.63-1.52,1.07-2.24a5.86,5.86,0,0,1,3.21-2.08Z" transform="translate(-46 -197.99)"/><path class="cls-2" d="M62.32,229.67a14.37,14.37,0,0,0,1.62,1.88.33.33,0,0,1-.28.4c-1.94-.12-3.25-2.12-4.2-3.52.12-.44.63-.08.91-.12.68.52,1.43.68,2,1.36Z" transform="translate(-46 -197.99)"/><path class="cls-2" d="M161.64,230.23a5.13,5.13,0,0,1-2.46,4.32c-.44.16-.91.6-1.35.32a19.89,19.89,0,0,1,3.49-4.64Z" transform="translate(-46 -197.99)"/><path class="cls-2" d="M154,231.39a1,1,0,0,1-.67,1.16c-.44,0-.72-.32-.91-.64A.83.83,0,0,1,153,231a.67.67,0,0,1,.48-.12c.24.08.35.28.55.48Z" transform="translate(-46 -197.99)"/><path class="cls-2" d="M60.13,231.75a23.32,23.32,0,0,1,2.15,1.88c-.52.36-1.15,0-1.75,0-1.35-.48-2.26-1.64-3.65-2,0-.44.56-.28.84-.4a7.23,7.23,0,0,1,2.41.52Z" transform="translate(-46 -197.99)"/><path class="cls-2" d="M102.62,219.93c-2.22-.88-3.69,1.43-6,1.15-.28.16-.2.44-.36.64s-.32,0-.44,0c-.12-1-.43-1.83-.55-2.75-.24-.4-.12-1-.32-1.36-1.27-3.48,3.09-.84,4-2.88.75-1.76-1.47-2-2.14-3.19V211c-.64-.64-1.31-.84-1.71-1.68a5.76,5.76,0,0,0,.12-3.08c0-.24-.2-.56-.56-.44-.75,1-1.31,1.88-2,2.88a21,21,0,0,0-2.34-1.76c-.6-.08-1.15-.68-1.82-.44a.56.56,0,0,0,.11.6,5.75,5.75,0,0,0,2,3.92l.12.6c-.72,1.63-.52,3.51-.72,5.27a29.22,29.22,0,0,1-8.6,12.1c-2.26,2.56-5,5-5.32,8.55-.12.56.08,1.24-.36,1.64a13.75,13.75,0,0,1-3.69-2c-1.82-1.27-4.44-1.12-5.63-3.43-.47-.92.12-1.84.56-2.52,1.35-1.28,1.15-3.55.43-5.11-.15,0-.19.16-.31.2-.12,2.35-2,4-1.27,6.59.16.76.55,1.24.75,2a6.08,6.08,0,0,1-.91-.2,9.92,9.92,0,0,0-2.66-.36c-1.82.84-4.32-.2-5.79,1.48-.24,0-.56.08-.48.43.88,0,1.71.24,2.58.21,1.39.23,2.3-.92,3.25-1.44h.24c.4-.4,1.07-.16,1.59-.24,2.5.28,4.44,1.47,6.5,2.71v.16c-.79.36-1.7.6-2.5,1a5.41,5.41,0,0,0-2.22,2.68c-.63,1,.2,1.88.6,2.71,0,.4.08.88.44,1,1.26-1.35.07-3,.27-4.59A3.26,3.26,0,0,1,70,238.42c2.26-1,3.89.88,5.71,1.92a27.65,27.65,0,0,1-.19,5.39,4.94,4.94,0,0,1-1.87.28c-3.13.24-5.59,2-8.41,2.92-1.27.44-2.77.4-4,.88a9.82,9.82,0,0,0,3.05-.12c3.89-.56,6.86-3.56,11.07-3l.08.12a9.37,9.37,0,0,1-1.87,2.6c-.12-.44-.16-.8-.55-1a.75.75,0,0,0-.92.32.59.59,0,0,0,0,.6,1.31,1.31,0,0,0,.88.56c-.08.36-.52.52-.76.84-1.11,1.87-3.37,1.12-4.68,2.43-.2.28-.91.44-.59.88a6,6,0,0,0,4.08-1c1.47-1.63,3-3.19,4.49-4.75a4.78,4.78,0,0,1-.88,3.64,4.43,4.43,0,0,0-1.07-.6,1,1,0,0,0-.71.79,2.6,2.6,0,0,0,.59.81c-1.35.95-3,1-4.6,1.47a77.74,77.74,0,0,1-8.65.64c-1.38-.08-3,.4-4.28,0-1.51.28-3.13-.2-4.36.64-.16.2,0,.4,0,.6,1.82,1.2,4.32.24,6.38.6H73.58a7,7,0,0,0,3.21-.6c2-1.16,3.14-3.24,4.17-5.27a8.13,8.13,0,0,0,.83-2.4,3.46,3.46,0,0,1,3-2.44,18.29,18.29,0,0,1-.68,6.07c-.24,1.28-1.07,2.52-.55,3.88.12.64.79.64,1.31.72,4.8-.08,9.6-.28,14.67.08a11.89,11.89,0,0,0,2.7.4c.08-.12.36-.16.24-.4a1.52,1.52,0,0,0-.95-1.12c-.08-.24-.44-.16-.56-.32-2.54-1.44-5.59-.68-8.57-.64-1.54.16-3.09.44-4.4-.44-.6-.72-.16-3-.16-3a56.69,56.69,0,0,1,2.46-7.71,6.82,6.82,0,0,0,.24-1.84,7.69,7.69,0,0,0,.24-2.72A17.55,17.55,0,0,1,92,235.31c.23-.6.43-1.24.67-1.84a6.12,6.12,0,0,1,.79-2.08c1.3.82,2.56.8,3.18,2.27l.55,3.32c0,.2.16.6.44.36,1-.68.71-2.19.71-3.23.24-1.24-.63-1.84-1-2.92a4.66,4.66,0,0,1-.73-1.15c-.16-.88-2.09-1.49-1.65-2.56a3.28,3.28,0,0,1,1.35-2.28.43.43,0,0,1,.2.28l.47-.33,0-3.34c1.29,0,3.21.16,4.51.16.36.12.64.4,1,.44l.31-.44,3.22-.63c-1.37.15-2.2-1.41-3.49-1.41Z" transform="translate(-46 -197.99)"/><path class="cls-2" d="M106.11,221.34a1.5,1.5,0,0,0,.29-.06l-.29.06Z" transform="translate(-46 -197.99)"/><path class="cls-2" d="M71.56,232.47a.88.88,0,0,1-.6.92c-.31-.12-.55-.16-.75-.48s.24-.76.55-.92c.32.08.72.12.8.48Z" transform="translate(-46 -197.99)"/><path class="cls-2" d="M69,232.47a.87.87,0,0,1,.16.92c-.28.24-.72.44-1,.12s-.48-.52-.28-.84.75-.52,1.07-.2Z" transform="translate(-46 -197.99)"/><path class="cls-2" d="M124.19,232.91l0,.06" transform="translate(-46 -197.99)"/><path class="cls-2" d="M154.42,233.59c.16.44-.2.76-.52.92-.39-.12-.91-.2-.91-.72a.76.76,0,0,1,1.43-.2Z" transform="translate(-46 -197.99)"/><path class="cls-2" d="M156.52,233.51c.12.2.4.52.08.72a1.57,1.57,0,0,0-.4.32.77.77,0,0,1-.95-.48c-.08-.44.28-.64.6-.84s.47.12.67.28Z" transform="translate(-46 -197.99)"/><path class="cls-2" d="M59,234a.78.78,0,0,1-1.07.52,1.84,1.84,0,0,1-.31-.52.71.71,0,0,1,.43-.68.94.94,0,0,1,1,.68Z" transform="translate(-46 -197.99)"/><path class="cls-2" d="M72.39,234.67c0,.32-.4.6-.67.76a1,1,0,0,1-.88-.56.8.8,0,0,1,.48-.8.88.88,0,0,1,1.07.6Z" transform="translate(-46 -197.99)"/><path class="cls-2" d="M70.05,234.39a.61.61,0,0,1,.12.64c-.24.2-.59.56-1,.32-.24-.2-.52-.36-.44-.76a1.77,1.77,0,0,1,.6-.48c.31-.08.47.12.71.28Z" transform="translate(-46 -197.99)"/><path class="cls-2" d="M162.59,234.87a1.07,1.07,0,0,1-.52.76.78.78,0,0,1-.87-.2c-.24-.08-.16-.4-.16-.6a1.38,1.38,0,0,1,.76-.52,1.48,1.48,0,0,1,.79.56Z" transform="translate(-46 -197.99)"/><path class="cls-2" d="M165.13,235.23a1,1,0,0,1-.75.72c-.24,0-.68-.12-.6-.48a.69.69,0,0,1,1.35-.24Z" transform="translate(-46 -197.99)"/><path class="cls-2" d="M63.55,235.79a.77.77,0,0,1-.48,1c-.28.16-.56,0-.75-.2a.67.67,0,0,1-.2-.79c.08-.36.43-.28.67-.44a1,1,0,0,1,.76.48Z" transform="translate(-46 -197.99)"/><path class="cls-2" d="M65.49,236.14c.12.32-.24.44-.32.68a.65.65,0,0,1-.71.08c-.28-.24-.6-.6-.32-1,.32-.6,1.15-.28,1.35.19Z" transform="translate(-46 -197.99)"/><path class="cls-2" d="M160.25,236c0,.39-.32.67-.55.91a.69.69,0,0,1-.8-.48.81.81,0,0,1,.44-.75.86.86,0,0,1,.91.32Z" transform="translate(-46 -197.99)"/><path class="cls-2" d="M163.5,236.58c-.08.36,0,.76-.43,1a1.14,1.14,0,0,1-1-.16.74.74,0,0,1-.15-.84.93.93,0,0,1,.95-.47c.28.16.36.35.59.47Z" transform="translate(-46 -197.99)"/><path class="cls-2" d="M62,237.42c.16.32-.2.4-.32.56a.8.8,0,0,1-.79-.08c-.28-.16-.16-.56-.12-.76.36-.68,1.07-.2,1.23.28Z" transform="translate(-46 -197.99)"/><path class="cls-2" d="M161,238.18c.16,0,.08.28,0,.36a3,3,0,0,1-3.21-.16,12.34,12.34,0,0,0-1.59-.88c.2-.52.92-.48,1.43-.6,1.15.16,2.06,1.24,3.33,1.28Z" transform="translate(-46 -197.99)"/><path class="cls-2" d="M63.94,237.82c.08.32-.16.44-.24.68s-.47.16-.67.08a.67.67,0,1,1,.91-.76Z" transform="translate(-46 -197.99)"/><path class="cls-2" d="M67.43,238.06c.16.36-.08.68-.39.88s-.52-.08-.76-.12c-.19-.28-.55-.6-.19-.92.35-.6,1.07-.28,1.34.16Z" transform="translate(-46 -197.99)"/><path class="cls-2" d="M113.29,239.75c-.07.8-1.39-.11-1.2.95a6,6,0,0,0,.79,2.24c.37.53.19,1.37.15,2a3.58,3.58,0,0,1-1.51,1.29c-1.13-.11-2.79.57-3.32-.83a5.85,5.85,0,0,1-.64-1.9c.12-.08.27-.08.38-.19,0-.27-.3-.42-.26-.68,1.28-.23-.53-1.37.56-1.44.91.94,2.38.64,3.17,1.66a3.29,3.29,0,0,0,.56.5c-.15-1-.6-1.9-.75-2.92a1.33,1.33,0,0,1,.45-1.33c.68-.53,1.25.22,1.62.64Z" transform="translate(-46 -197.99)"/><path class="cls-2" d="M70.92,239.5c.12.4-.19.64-.43.84s-.56-.24-.72-.44c-.12-.4.16-.6.4-.8a.85.85,0,0,1,.75.4Z" transform="translate(-46 -197.99)"/><path class="cls-2" d="M95.4,239.9a5.5,5.5,0,0,1-.48,4.47c0,.32.08.84-.36.8-1.07-1.47-.27-3.55.16-5.11.08-.4.56-.56.68-.16Z" transform="translate(-46 -197.99)"/><path class="cls-2" d="M129.35,240.66a4.45,4.45,0,0,1,.08,3.71l-.32.32a9.19,9.19,0,0,1-.91-2.83,9.58,9.58,0,0,0,.48-2.12c.55-.12.51.6.67.92Z" transform="translate(-46 -197.99)"/><path class="cls-2" d="M74,241.1c-.24.48-.91.6-1.35.92a4.72,4.72,0,0,1-3.53.68,4.31,4.31,0,0,1,4.52-1.88c.08.16.28.08.36.28Z" transform="translate(-46 -197.99)"/><path class="cls-2" d="M57.72,242.54c1.46,1,1.86,2.47,2.73,3.91.12.16.52.2.36.52-.32.24-.64-.24-1.07-.16a4.39,4.39,0,0,1-2.42-4.11c0-.16.24-.16.4-.16Z" transform="translate(-46 -197.99)"/><path class="cls-2" d="M127.8,243.78c0,.4,0,.79-.35.91a.73.73,0,0,1-.92-.48c-.11-.27.12-.43.2-.63a.7.7,0,0,1,1.07.2Z" transform="translate(-46 -197.99)"/><path class="cls-2" d="M144.54,245.89a19,19,0,0,1,.28-2.19,1.45,1.45,0,0,0,.16-.84c1-1.28,2.9-.88,4.4-.76a8.43,8.43,0,0,0,2,.44,1.43,1.43,0,0,1,1-.2c1.27-.68.43-2.16.51-3.32l-.47-1.2a4.77,4.77,0,0,1-.32-.8c-.24-.28-.4-.8-.63-1.07-.68-1.76-2-2.76-3.1-4.16-2-2.64-5.2-4.11-8.37-5.15s-6.31.32-9.12,1.31a2.26,2.26,0,0,1-1.55-1.67,7.9,7.9,0,0,1,.76-4.24c.11-1,.79-1.75,1.07-2.67a28.76,28.76,0,0,0,1.62-6.88,3.6,3.6,0,0,0-2.14-3.15,2.16,2.16,0,0,0-2.18.44,5.75,5.75,0,0,1-2.58,2.31c-.08.68.75.24,1,.48.87.16,1.87-.12,2.58.44a6.76,6.76,0,0,1-1.67,4.12,32.53,32.53,0,0,0-3.61,6.23l-.15-.16.19,9.77c1.26,2.1,2.84,4.5,5.2,5.29,1.27,1,2.86,2.28,4.56,1.36.91-.28,1,1,1.43,1.52.48,1.48-.59,2.52-.67,3.87l-1,2.2c-1.19,2.32-2.26,4.79-4.08,6.75-.6,0-.95.64-1.55.68-.32.44-1,.12-1.35.28-1.23.52-3,.2-3.81,1.36a.55.55,0,0,0,.32.2c2.42,0,5.12.2,7.7.08a1,1,0,0,0,.63-.76c-.35-.68.12-1.28.44-1.8.2-1,.83-1.55,1.11-2.47.83-1.64,1.78-3.24,2.7-4.88l1.23-2a13.87,13.87,0,0,1,1.22-2.24,5.08,5.08,0,0,0,.72-1.08c0-.4-.16-.56-.4-.84.28-.28.72-.2,1.07-.28a4.44,4.44,0,0,1,2.22,2.64l.36,1,.16.48-.08,1.32.16,1.24a28.27,28.27,0,0,1-.36,5.8c-.67,2.31-3.33,2.07-5.23,2.59-.48.32-1.39.16-1.39,1,2.3.48,5,.2,7.46.16.39-.16.47-.52.67-.88.08-.52.6-1,.44-1.52-.44-.56,0-1.44-.16-2.19a1.23,1.23,0,0,0,0-.76c.32-1.16.24-2.56.47-3.68l.16-1.52Z" transform="translate(-46 -197.99)"/><path class="cls-2" d="M164.06,244.34c-1.27,1.79-2.62,3.83-4.84,4.47-.16,0-.32.08-.4-.12,1.35-1.44,2.07-3.68,4.17-4.2a1.32,1.32,0,0,1,1.07-.15Z" transform="translate(-46 -197.99)"/><path class="cls-2" d="M55.77,246.29c-.2.16,0,.52-.39.56a.65.65,0,0,1-.84-.36.71.71,0,0,1,.52-.88c.32.16.63.28.71.68Z" transform="translate(-46 -197.99)"/><path class="cls-2" d="M67.2,246.85c.11.36-.28.36-.48.44a4.31,4.31,0,0,1-4.56-1.16c0-.16,0-.32.16-.36,1.62.4,3.53.08,4.88,1.08Z" transform="translate(-46 -197.99)"/><path class="cls-2" d="M58,246.33a1,1,0,0,1,.08.6.88.88,0,0,1-1,.36,1.3,1.3,0,0,1-.52-.52,1,1,0,0,1,.68-.76,1.18,1.18,0,0,1,.75.32Z" transform="translate(-46 -197.99)"/><path class="cls-2" d="M95.12,246.53c.08.36-.24.6-.48.76a.79.79,0,0,1-.83-.32.57.57,0,0,1,.28-.76c.36-.08.91,0,1,.32Z" transform="translate(-46 -197.99)"/><path class="cls-2" d="M165.56,246.69c.12.4-.23.6-.51.84a.85.85,0,0,1-.75-.12c0-.2-.28-.36-.2-.64a.84.84,0,0,1,.91-.48,4,4,0,0,1,.55.4Z" transform="translate(-46 -197.99)"/><path class="cls-2" d="M168.18,246.53c.24.36,0,.64-.16.92a.54.54,0,0,1-.71.24c-.24-.24-.56-.36-.59-.72s.35-.56.59-.68c.4-.16.56.24.87.24Z" transform="translate(-46 -197.99)"/><path class="cls-2" d="M54.11,247.69c0,.28-.2.44-.28.68-.2.08-.4.24-.64.16a1.16,1.16,0,0,1-.59-.64.76.76,0,0,1,1.51-.2Z" transform="translate(-46 -197.99)"/><path class="cls-2" d="M137.64,247.69a1.15,1.15,0,0,1,0,.52c-.24.32-.55.6-1,.4-.24-.24-.52-.48-.4-.84a.78.78,0,0,1,1.31-.08Z" transform="translate(-46 -197.99)"/><path class="cls-2" d="M60.49,248.29c-.08.28-.2.56-.55.6s-.48-.28-.68-.44c0-.36,0-.72.32-.92a.72.72,0,0,1,.91.76Z" transform="translate(-46 -197.99)"/><path class="cls-2" d="M56.68,248.37a.84.84,0,0,1-.39.88.93.93,0,0,1-1.07-.56,1.12,1.12,0,0,1,.71-.92c.36,0,.56.4.75.6Z" transform="translate(-46 -197.99)"/><path class="cls-2" d="M140.26,248.29a.79.79,0,0,1-.44,1c-.47.16-.87-.24-1.07-.56.2-.32.24-.76.72-.84a.92.92,0,0,1,.79.44Z" transform="translate(-46 -197.99)"/><path class="cls-2" d="M58.55,248.45c.12.28-.12.4-.2.6-.2,0-.32.24-.56.16s-.47-.28-.51-.56.24-.6.51-.76a.74.74,0,0,1,.76.56Z" transform="translate(-46 -197.99)"/><path class="cls-2" d="M163.38,248.77a1.15,1.15,0,0,1-.67.64c-.32.08-.52-.2-.75-.32s-.12-.52,0-.72a.79.79,0,0,1,1.46.4Z" transform="translate(-46 -197.99)"/><path class="cls-2" d="M166.4,248.93a1,1,0,0,1-1,.68c-.36-.16-.76-.44-.48-.92.16-.16.24-.32.48-.36a.76.76,0,0,1,1,.6Z" transform="translate(-46 -197.99)"/><path class="cls-2" d="M147.56,249.21c.2.52-.28.68-.6.92a1.84,1.84,0,0,1-.75-.32.92.92,0,0,1,.56-1,1,1,0,0,1,.79.44Z" transform="translate(-46 -197.99)"/><path class="cls-2" d="M136.65,249.69c.2.08.12.36.08.48-.24.16-.56.56-.91.32a.67.67,0,0,1-.4-.76.74.74,0,0,1,1.23,0Z" transform="translate(-46 -197.99)"/><path class="cls-2" d="M138.87,250a.54.54,0,0,1-.32.64c-.28.28-.59,0-.87-.12a.63.63,0,0,1,0-.6.89.89,0,0,1,.52-.32c.27.08.59.08.71.4Z" transform="translate(-46 -197.99)"/><path class="cls-2" d="M71.56,250c.24.24,0,.52-.08.76a.77.77,0,0,1-1,.2c-.4-.16-.36-.68-.28-1,.24-.08.24-.36.55-.36a1.39,1.39,0,0,1,.8.4Z" transform="translate(-46 -197.99)"/><path class="cls-2" d="M151.8,250.17c.08.4-.32.56-.59.64-.48.16-.72-.2-.92-.52,0-.24.24-.4.32-.6.56-.24.91.16,1.19.48Z" transform="translate(-46 -197.99)"/><path class="cls-2" d="M149.66,250.17c.16.4-.28.6-.44.8a.79.79,0,0,1-.87-.16c-.2-.12-.2-.36-.2-.6.24-.2.36-.44.64-.52a1,1,0,0,1,.87.48Z" transform="translate(-46 -197.99)"/><path class="cls-2" d="M167.55,250.65c.08.56-.64.28-.91.44-1.67,1-3.81.24-5.4-.36.12-.52.72-.32,1-.52,1.71-1.08,3.45.24,5.16.32l.12.12Z" transform="translate(-46 -197.99)"/><path class="cls-2" d="M59,250.17l-.15.28a6.47,6.47,0,0,1-5.12.92l-.16-.24a7.18,7.18,0,0,1,5.32-1.08l.11.12Z" transform="translate(-46 -197.99)"/><path class="cls-2" d="M155.85,250.45a.91.91,0,0,1-.4.76.79.79,0,0,1-1-.44c-.12-.32.2-.64.51-.76s.76,0,.92.44Z" transform="translate(-46 -197.99)"/><path class="cls-2" d="M66.09,250.61c-.16.32-.08.64-.48.8a.85.85,0,0,1-1-.52c-.12-.44.2-.56.39-.76.48-.24.84.12,1.08.48Z" transform="translate(-46 -197.99)"/><path class="cls-2" d="M63.27,250.81c.12.28-.12.44-.2.64a.72.72,0,0,1-.79.12c-.28-.24-.56-.52-.44-1a2.29,2.29,0,0,1,.64-.44.9.9,0,0,1,.79.64Z" transform="translate(-46 -197.99)"/><path class="cls-2" d="M158.62,251.73a.86.86,0,0,1-.63.72.88.88,0,0,1-.75-.4.64.64,0,0,1,.15-.76c.08-.12.36-.12.52-.2a.83.83,0,0,1,.71.64Z" transform="translate(-46 -197.99)"/><path class="cls-2" d="M60.33,251.29c.12.32-.16.44-.2.68a5.53,5.53,0,0,1-.87,1.71c-.75.92-1.82.92-2.89,1.2l-.16-.32a10.34,10.34,0,0,1,4-3.35l.12.08Z" transform="translate(-46 -197.99)"/><path class="cls-2" d="M156.64,252.16c.08.49-.32.57-.59.76a.9.9,0,0,1-.8-.47c-.12-.45.28-.6.52-.8a.81.81,0,0,1,.87.51Z" transform="translate(-46 -197.99)"/><path class="cls-2" d="M64.89,252.16c0,.09,0,.16.12.2,0,.45-.35.56-.59.76a1.07,1.07,0,0,1-.87-.39.66.66,0,0,1,.39-.92c.36,0,.84,0,1,.35Z" transform="translate(-46 -197.99)"/><path class="cls-2" d="M163.94,253.36c.4,0,.47-.52.91-.6a1,1,0,0,1,1,.44c.16.48-.2.72-.51.92s-.88-.24-.84.28a1.25,1.25,0,0,1,.56.8c-.08.16-.36.12-.48,0a5,5,0,0,1-2.85-2.48c-.16-.36-.91-.64-.48-.95a3.69,3.69,0,0,1,2.74,1.55Z" transform="translate(-46 -197.99)"/><path class="cls-2" d="M167.75,252.12a.6.6,0,0,1,0,.76c-.2.4-.8.24-1.15.2-.2-.2-.4-.4-.32-.72a1.25,1.25,0,0,1,.6-.51,1.1,1.1,0,0,1,.91.27Z" transform="translate(-46 -197.99)"/><path class="cls-2" d="M153.35,254.28a5.71,5.71,0,0,1,.87,1.6c-.08.12-.28.08-.36.08-1.34-.76-3.09-1.6-3.61-3.2-.12-.16-.43-.36-.39-.64,1-.2,2,.56,2.74,1.12.27.4.59.6.75,1Z" transform="translate(-46 -197.99)"/><path class="cls-2" d="M62.67,252.76c.16.36-.16.64-.35.8a.93.93,0,0,1-.92-.32c-.27-.43.24-.79.56-1s.52.28.71.48Z" transform="translate(-46 -197.99)"/><path class="cls-2" d="M158.31,253.68c0,.24-.28.4-.4.56-.32,0-.63.16-.91-.12-.08-.2-.28-.52,0-.72.43-.56,1.07-.12,1.35.28Z" transform="translate(-46 -197.99)"/><path class="cls-2" d="M168.18,254.24a.93.93,0,0,1-.55,1,1,1,0,0,1-.95-.36c-.2-.24,0-.48,0-.76a1,1,0,0,1,1-.28,2.09,2.09,0,0,1,.47.4Z" transform="translate(-46 -197.99)"/><path class="cls-2" d="M140.74,259.76c0,.47-.88.36-1.24.72a8.57,8.57,0,0,1-4.16.59v-.24a5.92,5.92,0,0,1,5.4-1.07Z" transform="translate(-46 -197.99)"/><path class="cls-2" d="M82.86,261.47a.76.76,0,0,1-.59.68.77.77,0,0,1-.68-.4c-.16-.48.24-.68.52-.88a.91.91,0,0,1,.75.6Z" transform="translate(-46 -197.99)"/><path class="cls-2" d="M140.06,261.91a1.15,1.15,0,0,1-.59.92c-.36.08-.6-.12-.88-.28s-.08-.44-.12-.64a.86.86,0,0,1,1.59,0Z" transform="translate(-46 -197.99)"/><path class="cls-2" d="M148,262.07a6.48,6.48,0,0,1-3.41,1.4l-2.14,0-.2-.16c1.31-1.6,3.69-1.6,5.75-1.44v.24Z" transform="translate(-46 -197.99)"/><path class="cls-2" d="M72,263a.73.73,0,0,1-.51.76.71.71,0,0,1-.83-.36.73.73,0,0,1,.31-.92c.44-.28.88.2,1,.52Z" transform="translate(-46 -197.99)"/><path class="cls-2" d="M74,263.43c.12.2-.08.32-.16.52a.65.65,0,0,1-.75,0,.5.5,0,0,1-.24-.68c.12-.24.36-.2.47-.36a1.13,1.13,0,0,1,.68.52Z" transform="translate(-46 -197.99)"/><path class="cls-2" d="M58.79,267.47c-.4.48-1-.12-1.47-.36-1.39-.8-1.35-2.36-2.74-3.28.16-.48.52,0,.8,0a5,5,0,0,0,.83.44c1.35.76,1.66,2,2.58,3.24Z" transform="translate(-46 -197.99)"/><path class="cls-2" d="M174.41,252a3.15,3.15,0,0,0-3-1.64,2.76,2.76,0,0,0-2.23,1.64,2,2,0,0,0,.76,2.19.61.61,0,0,0,.79-.2c.2-.52-.35-.52-.43-.92a1.32,1.32,0,0,1,.43-1.39c.4-.4,1.07-.2,1.55-.2a2.87,2.87,0,0,1,1.19,1.15,3.21,3.21,0,0,1,0,2.12,3.56,3.56,0,0,1-2.46,2c-3.29.48-39.43.32-39.43.32-4.24.4-9.08-.8-12.73,1.44-1.67.8-2.5,2.63-2.94,4.27a28.74,28.74,0,0,0-3.09,3.16l-.12-.12c.2-1,.64-1.8.83-2.76.6-.8.6-1.88,1-2.76,1.5-2.43,2.93-4.91,5.27-6.63,1-1.32,2.74-1.08,4.25-1.08a10.49,10.49,0,0,0,5.51.8.36.36,0,0,0,.12-.28c-.56-.52-1.47-.72-2.1-1.23-1.59-.76-3.1.23-4.77.12-.07-.08-.15-.12-.11-.24a23.09,23.09,0,0,1,4.92-2.64,32.93,32.93,0,0,1,4.32-1.72c.59,0,1.15-.52,1.7-.16l2.11-.56c.08,0,.16.16.31.12,1.79-.6,4.05,0,6.07-.08l.28.24,1.9.48c.72.08,1,.92,1.79,1,.4-.56-.44-.8-.64-1.16a4.36,4.36,0,0,1,2.66.4l-.39.44c-.24.44.11.76.47.92s.48-.12.67-.2c.52-.36,0-.72.12-1a37.73,37.73,0,0,1,8.45,2.4,6.85,6.85,0,0,0,2.3.76,10.36,10.36,0,0,0-3-1.6c-.68-.4-1.63-.44-2.14-1,.12-.2.39-.12.51-.28a5.88,5.88,0,0,0,3.45-2.24c.08-.24.52-.16.48-.48-.36-.4-.95.12-1.43.08-1.66.32-2.38,2.28-4,2.64-2-.48-4.09-1-6.11-1.48a12.36,12.36,0,0,1-3-.64l-2.22-.2h-4c0-.08-.15-.12-.11-.24,1.43-.36,2.65-1.2,4.08-1.56L152.87,239a27.41,27.41,0,0,0,3-3.27.75.75,0,0,0-.44-.76.66.66,0,0,0-.79.16c-.48.36,0,.8,0,1.23a6.67,6.67,0,0,1-1.83,1.56c-.16,0-11,4.92-11,4.92a27.87,27.87,0,0,1-4.83,1.8l-2.3.35a1.53,1.53,0,0,1-1,.92,9.47,9.47,0,0,1-1.82.52c-5.16,2-10.51,4.12-14.6,8.19a4.51,4.51,0,0,0,.4-1.68,3.26,3.26,0,0,0-.44-1.75c-.09-.22-.38-.87-.29-1.1l-.58.38a5.57,5.57,0,0,0-.32,3.39c.12.72.72,1.56.16,2.2-1.9,2.32-3,5.11-4.24,7.75-.48-.08-.72-.52-.92-1a13.34,13.34,0,0,0,2.82-5.83c.28-.2.08-.72.36-1-.08-.64.35-1.28,0-1.8.25-.87-1.16-1.67-.26-2.23l-.75.35c-1.7,2.24.89,5.6-1.06,7.76v.15a6.77,6.77,0,0,1-1.58,1.92c-1-.4-1.31-1.48-1.87-2.27a3.55,3.55,0,0,1-.35-3.72c.35-1.16-.24-2.16-.36-3.2l-.4-.23a4.59,4.59,0,0,0-.55,4.67c.39.72.43,1.72,1,2.32a13.09,13.09,0,0,0,1.71,2.95c.15.4-.24.48-.44.68-.44-.28-.36-.92-.75-1.2a29.29,29.29,0,0,0-5.08-7.31c-.08-.36-.44-.68-.24-1.08a2.91,2.91,0,0,0,.51-3c-.07-.2-.31-.44-.27-.64l-.6-.48c.08,1.4-.83,2.63-.43,4.11v.08a76.35,76.35,0,0,0-13.21-8l-.36,1a27.3,27.3,0,0,1,4.25,2.17,27.54,27.54,0,0,1,4,2.12c5.4,3,9,8,11.39,13.46,0,.44.43.92.15,1.36a21.64,21.64,0,0,0-3-3,5.83,5.83,0,0,0-3-4.43c-.6-.88-1.87-1-2.86-1.24l-14.44-.08c-11.74-.16-22.45.36-34.11.16-1.63-.16-3.61-.72-4.09-2.44a2.72,2.72,0,0,1,0-2.2,2.43,2.43,0,0,1,2-1.07,2.11,2.11,0,0,1,1.35,1.12c0,.51-.44,1-.64,1.43,0,.16.2.48.48.36a1.88,1.88,0,0,0,1-1.28c0-.28.16-.67-.12-.87a2.66,2.66,0,0,0-1.87-1.64,3.29,3.29,0,0,0-2.69.92c-1,.79-.92,2.23-.64,3.35a5.37,5.37,0,0,0,4.29,3.2l38.59.16c3.77.2,8-.44,11.82.32a4.54,4.54,0,0,1,3.21,3c0,.08-.16,0-.27,0a17.24,17.24,0,0,0-11.27-2.31,14,14,0,0,0-4.44.91,2.29,2.29,0,0,1-1.95-.63c-1.42-1.28-3.92-1.2-5.75-.72,0,.12,0,.24,0,.28,2-.16,3.1,1.51,4.84,1.71.4.08.72-.36,1.07,0a35.75,35.75,0,0,1-5.51,2.48c-.6-.12-.91-.68-1.39-1-.75-.84-2.14-.48-3.17-.56-.36.08-.67-.16-.91,0a3.35,3.35,0,0,0,1.7,1.32c1,.44,2.14,0,3.06.56a3.84,3.84,0,0,1-.84.56c-1.86.72-3.41,2.4-5.47,2.28A7.07,7.07,0,0,1,68,264.75a4,4,0,0,0-4-2.32c-.12.08-.28.08-.24.28.88.52,1.55,1.56,2.42,2.16.56.68,1.63,0,2.15.76a7,7,0,0,0,2.57,1.12,11.23,11.23,0,0,0,2.07.56l-.28.16a33.94,33.94,0,0,1-11.82,1.15c-1.19,0-2.34-.39-3.53-.36a2.34,2.34,0,0,0,.95.57,2.52,2.52,0,0,1-1.07.31,7,7,0,0,0-1.51.4,3.94,3.94,0,0,0-1.7.4,8.18,8.18,0,0,1-2.26,1.84c0,.16,0,.4.15.4.76-.32,1.71-.08,2.46-.4,1.31-.12,2.07-1.56,3.1-2.16,1.11-.87,2.69-.68,4-.48.8.2-.08.52.16,1,.32.28.6.6,1,.48a.72.72,0,0,1,.28-.2.91.91,0,0,0,0-1c.56-.36,1.31,0,1.9-.2,1.51,0,3-.36,4.49-.4.24,0,.51-.28.75,0-.12.31-.51.35-.36.79s.48.52.8.6c.39-.16.75-.44.59-1-.08-.28-.39-.32-.59-.43.83-.41,1.78-.53,2.62-.92a7.37,7.37,0,0,0,1.66-.56c.52,0,1-.52,1.43-.32a8.77,8.77,0,0,1-.83,1.91c-.64,2.12-1.11,4.92,0,7,.12,0,.15,0,.23-.08-.83-2.12-.35-4.56.36-6.56.56-3.39,4-4.39,6.55-5.67l.11.16c-.67,1.76-1.66,3.44-1.5,5.55.08.36-.16.72,0,1a4.17,4.17,0,0,0,1.46-1.84c.28-1.79-.75-4,1.08-5.35,3.25-1.28,6.3-2.95,10.07-3,.12.12.4-.08.44.15-.8.88-1.95,1.72-2.3,2.8-1.27,1.76-1.23,4.76-.68,6.91.36,1.24-.71,1.92-1.23,2.88-.24.34-.31.92-.54,1.31l.78.09a4.28,4.28,0,0,0,1.35-2.64,1.11,1.11,0,0,0,.75.8c.28-.44-.23-.76-.28-1.2.64-.36.92.44,1.43.6a10.24,10.24,0,0,0,2.42.56l.28-.28c-.87-1.36-2.62-1.6-4.13-1.68a8,8,0,0,1-.71-4.55,7.12,7.12,0,0,1,.79-2.48,6,6,0,0,1,1.12-1.52,5.37,5.37,0,0,1,2.49-1.35h.12a.16.16,0,0,0,0,.11c-1.07.84-1.19,2-1.82,3a3.35,3.35,0,0,0-.36,3.48c.24.52.12,1.31.68,1.68a9.14,9.14,0,0,0,.83-2.44c-.12-1.32-.91-2.56-.16-3.84a3.28,3.28,0,0,1,2.14-1.76c2.18-.2,4.09.92,6,1.76.4.28,1.07.52,1.15,1.08a3.25,3.25,0,0,1-5.08,2.64,2.75,2.75,0,0,1-.63-2.44,1.64,1.64,0,0,1,1.75-.64c.39.2.75.6,1.26.36a.5.5,0,0,0,.16-.64c-.43-.24-.59-.84-1.19-.92a2.57,2.57,0,0,0-2.18.44,2.82,2.82,0,0,0-.91,2.8,3.43,3.43,0,0,0,2.46,2.56,4.61,4.61,0,0,0,4.88-1.68,5.58,5.58,0,0,0,.87-1.72,10.44,10.44,0,0,1,4.09,5.27,9,9,0,0,1,0,2l1.38.12a1.33,1.33,0,0,1,.12-1,12,12,0,0,1,4.09-6.55c.67-.4.51.52.67.8a5.37,5.37,0,0,0,3.45,3,4.37,4.37,0,0,0,4.29-1.4c.51-1,1.15-2.36.27-3.36a2.54,2.54,0,0,0-4.36.44c0,.32,0,.68.24.84.16,0,.48,0,.6-.2.07-.6.59-.88,1.07-1.2a1.22,1.22,0,0,1,1.26.24,2.08,2.08,0,0,1,.56,1.56,2.42,2.42,0,0,1-1.31,1.88,4,4,0,0,1-3.81-.36,9.22,9.22,0,0,1-1.11-1.76,3,3,0,0,1,0-1.84,13.43,13.43,0,0,1,5.67-2,4.06,4.06,0,0,1,2.11,1.32c1.82,1.88-.4,4.56.87,6.63.48-.07.48-.71.67-1.11.6-1.44-.15-3-.51-4.4a8.4,8.4,0,0,0-1.51-2.36,1,1,0,0,1,.48-.08,10,10,0,0,1,2.42,2.08,10.74,10.74,0,0,1,1.54,6.55c-.31,1.2-1.58,1.76-2.57,2.2a3.7,3.7,0,0,0-1.08,1.28c.48.28,1.15,0,1.63-.2.75-.28,1.19-1.24,1.71-1.68.07,0,0,.16.07.24.05.44-.19,1,.2,1.16a14.35,14.35,0,0,0,.36-2,3.85,3.85,0,0,1,.75,2c.36.72,1,1.68,1.91,1.8.24-.36,0-.72-.12-1-.12-1-.95-1.52-1.51-2.24-1.39-1.92-.75-4.91-1.82-7.07a8.48,8.48,0,0,0-2.14-3l.15-.16a23.5,23.5,0,0,1,5.36,1c2.18,1.08,5.35.84,6.39,3.68a10.4,10.4,0,0,0,2.26,4.31l.12-.08a1.65,1.65,0,0,0,0-1.47c-.24-2-2-2.48-2.9-4.16l.12-.16a26.83,26.83,0,0,1,2.89.92,8.55,8.55,0,0,1,5.8,7.23,15.66,15.66,0,0,1-1.47,6.83c-.12.32-.68.68-.32,1,.44-.32.52-.84.75-1.2a11.08,11.08,0,0,0,1.31-8c0-.52-.63-.92-.36-1.44a1.26,1.26,0,0,0,.68.36c.24-.16.6-.16.75-.44s.2-.52,0-.72c-.23-.35-.75-.35-1.15-.27a1.9,1.9,0,0,0-.47.87,8.45,8.45,0,0,0-1.43-2.11l.08-.12c1.79.6,3.41,1.48,5.23,1.95a2.63,2.63,0,0,0,1.39.44,40.07,40.07,0,0,0,4.88,1.24c1.19-.12,2.18.44,3.37.16v-.08l0,0c-.43-.56-1.38,0-1.9-.44a30.12,30.12,0,0,1-7.81-1.95c0-.12.19-.08.31-.08a1,1,0,0,0,.64-1,1.08,1.08,0,0,0-.92-.44,1.13,1.13,0,0,0-.59.68,1,1,0,0,0,.59.76c-.07.08-.23,0-.35,0-1.23-.56-2.42-1.08-3.61-1.64-.44-.08-.79-.44-1.23-.52-.91-.44-1.83-.88-2.74-1.24a62.64,62.64,0,0,0-8-3l-1.71-.48c-1-.28-2-.52-3-.8-3.37-.83-7.89-.91-10.83.92-.47-.16-.75.6-1,.12.83-2.19,3.25-2.91,5.43-3,15.91-.16,30.82-.28,46.49-.52a5,5,0,0,0,4.56-2.28,4,4,0,0,0,.28-3.67Zm-63.07,14.74a3.56,3.56,0,0,0-.43,1.4l-.16.08c.12-.6-.48-1-.32-1.6a16,16,0,0,1-.59-1.6c-.36-.64.31-.92.59-1.36.56.24.75.76,1.15,1.24.24.68-.28,1.2-.24,1.84Z" transform="translate(-46 -197.99)"/><path class="cls-2" d="M154.38,264.19c0,.12.24.16.16.36a8.3,8.3,0,0,1-5.32,1.68c-.16,0-.31.16-.51.12s-.16-.2-.08-.28a6.05,6.05,0,0,1,5.75-1.88Z" transform="translate(-46 -197.99)"/><path class="cls-2" d="M148,264.83c.16.56-.19.88-.63,1.08a1.13,1.13,0,0,1-.87-.64c-.12-.32.16-.48.28-.68a.74.74,0,0,1,1.22.24Z" transform="translate(-46 -197.99)"/><path class="cls-2" d="M72.59,264.91a.82.82,0,0,1-.2.84.79.79,0,0,1-.71.2c-.28,0-.44-.36-.52-.6a.86.86,0,0,1,.52-.76c.31,0,.67,0,.91.32Z" transform="translate(-46 -197.99)"/><path class="cls-2" d="M65.49,267.51v.28a3.1,3.1,0,0,1-2.58-.6,5.31,5.31,0,0,0-2.1-2c0-.12-.24-.28,0-.36,2,0,3.17,1.6,4.68,2.68Z" transform="translate(-46 -197.99)"/><path class="cls-2" d="M160.41,264.87c-.91,1.36-1.71,3-3.33,3.63-.28,0-.52.4-.76.12a7.38,7.38,0,0,1,3.53-3.79,1.33,1.33,0,0,1,.56,0Z" transform="translate(-46 -197.99)"/><path class="cls-2" d="M74.89,265.35c0,.44-.28.52-.55.76-.32,0-.48-.2-.68-.44-.16-.4.2-.56.4-.76a.83.83,0,0,1,.83.44Z" transform="translate(-46 -197.99)"/><path class="cls-2" d="M165.41,265.59c-.36.52-.2,1.28-.56,1.84-.79.91-1.47,1.95-2.74,2.15-.19-.4.28-.79.48-1.16a5.75,5.75,0,0,1,2.62-3.07l.2.24Z" transform="translate(-46 -197.99)"/><path class="cls-2" d="M53.19,266a.78.78,0,0,1,0,.88.92.92,0,0,1-.91.16.75.75,0,0,1-.32-1c.24-.36.95-.56,1.23-.08Z" transform="translate(-46 -197.99)"/><path class="cls-2" d="M50.93,266.43c0,.2.16.36.12.56a.93.93,0,0,1-.55.48.82.82,0,0,1-.91-.52.76.76,0,0,1,.39-.84.8.8,0,0,1,1,.32Z" transform="translate(-46 -197.99)"/><path class="cls-2" d="M55.61,266.67c.08.32.16.88-.31,1-.56.24-.88-.16-1.19-.48a.9.9,0,0,1,.47-.8,1.09,1.09,0,0,1,1,.32Z" transform="translate(-46 -197.99)"/><path class="cls-2" d="M62.12,267.19c0,.28,0,.68-.28.76s-.56.12-.75.08c-.08-.24-.52-.44-.28-.72a1.58,1.58,0,0,1,.55-.44c.24.12.6,0,.76.32Z" transform="translate(-46 -197.99)"/><path class="cls-2" d="M169.21,267.47c-.11.28-.27.64-.59.64s-.71-.08-.91-.45.2-.67.51-.79.92.16,1,.6Z" transform="translate(-46 -197.99)"/><path class="cls-2" d="M162,267.66c0,.33-.32.57-.48.68a1,1,0,0,1-1.23-.59,1,1,0,0,1,.67-.72,1.06,1.06,0,0,1,1,.63Z" transform="translate(-46 -197.99)"/><path class="cls-2" d="M166.87,267.59a.79.79,0,0,1-.35.67,1,1,0,0,1-1-.15c-.35-.32-.07-.6.16-.84s1-.16,1.15.32Z" transform="translate(-46 -197.99)"/><path class="cls-2" d="M52.16,268.26a.85.85,0,0,1-.47,1,.92.92,0,0,1-.88-.56.74.74,0,0,1,.4-.83.91.91,0,0,1,.95.39Z" transform="translate(-46 -197.99)"/><path class="cls-2" d="M160,268.7a.88.88,0,0,1-.55,1c-.32.08-.52-.08-.76-.28s-.35-.63,0-.84a.78.78,0,0,1,1.35.08Z" transform="translate(-46 -197.99)"/><path class="cls-2" d="M73.5,269.14c.16.44-.31.52-.43.76-.16.08-.48.12-.6,0s-.43-.48-.32-.84c.2-.16.28-.32.52-.4.44-.12.6.28.83.52Z" transform="translate(-46 -197.99)"/><path class="cls-2" d="M168.5,269.42c.08.28-.16.4-.2.6a1.06,1.06,0,0,1-.91.16c-.36-.2-.36-.52-.36-.88.24-.16.28-.36.56-.44a.9.9,0,0,1,.91.56Z" transform="translate(-46 -197.99)"/><path class="cls-2" d="M166,269.54c.16.48-.28.72-.59.84-.16,0-.4-.08-.44.16a10.45,10.45,0,0,1,2.46,2.12V273a5.36,5.36,0,0,1-3.93-1.52c-.27-.2-.75-.2-1.07-.48.52-.52,1.47-.32,2.18-.36.52-.56-.59-1,.08-1.44.24,0,.4-.28.72-.2a1.39,1.39,0,0,1,.59.56Z" transform="translate(-46 -197.99)"/><path class="cls-2" d="M149.82,269.58c.08.2-.16.44-.2.64a.79.79,0,0,1-.87.16c-.2-.28-.52-.52-.4-.92a.82.82,0,0,1,1.47.12Z" transform="translate(-46 -197.99)"/><path class="cls-2" d="M61.13,271c-.12.36-.28.6-.68.64a.78.78,0,0,1-.71-.48c0-.28.16-.44.2-.64.43-.36,1.23-.12,1.19.48Z" transform="translate(-46 -197.99)"/><path class="cls-2" d="M64.34,270.46c0,.56-.6.88-.79,1.44a4.07,4.07,0,0,1-3.18,2.64c-.16-.36.52-.8.68-1.16.63-1.36,1.9-2.08,3-2.92Z" transform="translate(-46 -197.99)"/><path class="cls-2" d="M148.87,271c0,.44-.36.76-.68.92s-.63-.16-.83-.32c-.32-.32-.12-.64,0-1,.48-.48,1.15-.08,1.47.36Z" transform="translate(-46 -197.99)"/><path class="cls-2" d="M151.33,271.3a1,1,0,0,1-.72.88c-.08-.12-.28,0-.4-.08a.89.89,0,0,1-.51-.72c.2-.2.28-.52.55-.56s1,0,1.08.48Z" transform="translate(-46 -197.99)"/><path class="cls-2" d="M70.49,271.26a.86.86,0,0,1-.6.84.78.78,0,0,1-.75-.48c-.08-.36.28-.6.47-.8.48-.16.6.2.88.44Z" transform="translate(-46 -197.99)"/><path class="cls-2" d="M73.23,271.42a1,1,0,0,1-.76.68c-.28-.08-.59-.16-.71-.48s.28-.6.55-.8a.84.84,0,0,1,.92.6Z" transform="translate(-46 -197.99)"/><path class="cls-2" d="M159.85,274.22c.2.16.56.36.48.64-.63.28-1.15-.44-1.74-.56a8.17,8.17,0,0,1-2.07-3.2c.36-.36.76.08,1.07.2a7.68,7.68,0,0,1,2.26,2.92Z" transform="translate(-46 -197.99)"/><path class="cls-2" d="M161.32,271.42a1,1,0,0,1-.08.88c-.24.4-.75.32-1.11.24-.2-.24-.55-.56-.32-.92s.48-.4.76-.52.47.2.75.32Z" transform="translate(-46 -197.99)"/><path class="cls-2" d="M76.87,272.46c0,.32.12.8-.27,1a.78.78,0,0,1-1-.48c-.19-.48.24-.56.48-.8.32-.08.51.08.75.28Z" transform="translate(-46 -197.99)"/><path class="cls-2" d="M151.21,275.06a5.87,5.87,0,0,1,1,2.83c-.12.28.2.56,0,.76H152c-1.79-1.28-2.18-3.07-2.86-4.87a.33.33,0,0,1-.16-.4c.4-.36.68.36,1.08.48l1.11,1.2Z" transform="translate(-46 -197.99)"/><path class="cls-2" d="M82,273.7s0,.08,0,.08c-1.59,1.12-3.81,1.8-5.63.72a.31.31,0,0,1,.19-.36,8.27,8.27,0,0,1,3.5-.76l1.9.32Z" transform="translate(-46 -197.99)"/><path class="cls-2" d="M73,273.9c-1.35.84-2.58,2.47-4.25,2.87-.32.12-.51.56-.91.32.71-2.15,3-3.31,5.16-3.51v.32Z" transform="translate(-46 -197.99)"/><path class="cls-2" d="M148.87,275.7c.11.32,0,.76-.32.84a.56.56,0,0,1-.75,0c-.36-.17-.36-.52-.36-.8s.4-.32.59-.44c.36.08.64.08.84.4Z" transform="translate(-46 -197.99)"/><path class="cls-2" d="M145.57,275.9a2.19,2.19,0,0,1-1.42,1c-1.35.48-2.58-.16-3.77-.47,0-.32.43-.21.63-.4a8.64,8.64,0,0,1,4.05-.2c.12-.08.4-.12.51,0Z" transform="translate(-46 -197.99)"/><path class="cls-2" d="M73,277.05c-.12.16-.16.52-.48.64a.82.82,0,0,1-.79-.16c-.08-.24-.36-.44-.16-.72s.4-.35.63-.44a.85.85,0,0,1,.8.68Z" transform="translate(-46 -197.99)"/><path class="cls-2" d="M75.33,277.41a1.46,1.46,0,0,1-.56.76.86.86,0,0,1-.79-.28.94.94,0,0,1-.12-.8c.08-.2.36-.24.55-.36.4,0,.76.36.92.68Z" transform="translate(-46 -197.99)"/><path class="cls-2" d="M148.11,277.81a1.09,1.09,0,0,1-.27.76.68.68,0,0,1-.88.16c-.27,0-.35-.36-.47-.56s.16-.52.28-.8a.86.86,0,0,1,1.34.44Z" transform="translate(-46 -197.99)"/><path class="cls-2" d="M149.86,277.73c0,.2.16.4.08.56-.24.2-.4.72-.88.52-.23.08-.35-.24-.47-.32-.16-.4,0-1,.47-1.08.36-.12.6.2.8.32Z" transform="translate(-46 -197.99)"/><path class="cls-2" d="M73.9,278.89a1.08,1.08,0,0,1-.4,1.08c-.43.08-1,.08-1.15-.44a1.07,1.07,0,0,1,.48-1.16,1,1,0,0,1,1.07.52Z" transform="translate(-46 -197.99)"/><path class="cls-2" d="M76.16,278.73c-.08,1.12-.32,2.48-1.43,3.12-.63.12-1.27.72-1.9.32V282c.83-1.2,2.34-2.12,3.33-3.24Z" transform="translate(-46 -197.99)"/><path class="cls-2" d="M141.88,279.65c.16.24-.11.44-.23.64s-.68.16-1,0-.32-.52-.2-.8a.8.8,0,0,1,.51-.44c.36,0,.68.28.87.56Z" transform="translate(-46 -197.99)"/><path class="cls-2" d="M80.13,281.49c.55.92.23,2.16.55,3.16-.67.07-1-.68-1.39-1.08-.87-1.2-.75-2.8-1.15-4.2a.21.21,0,0,1,.28-.08A10.07,10.07,0,0,1,79.93,281c-.08.28.24.28.2.52Z" transform="translate(-46 -197.99)"/><path class="cls-2" d="M143.87,280c0,.32-.36.4-.56.6a1.49,1.49,0,0,1-.75-.36c-.12-.4.2-.52.4-.72a.66.66,0,0,1,.91.48Z" transform="translate(-46 -197.99)"/><path class="cls-2" d="M148.59,283.53c0,.12,0,.36-.24.28h-.16c-1.15-1-2.3-2.2-2.14-3.8l.24,0c1.07.92,2.26,1.92,2.3,3.56Z" transform="translate(-46 -197.99)"/><path class="cls-2" d="M145.61,282.25a.92.92,0,0,1-.35.76c-.44.12-1.11.08-1.19-.52,0-.4.39-.6.59-.8a.81.81,0,0,1,1,.56Z" transform="translate(-46 -197.99)"/><path class="cls-2" d="M143,283.09c-.56,1.47-2.07,2.23-3.1,3.35-.2-.12-.12-.44-.08-.6a5.54,5.54,0,0,1,3.06-3.59c.63.08,0,.52.12.84Z" transform="translate(-46 -197.99)"/><path class="cls-2" d="M146,284.29c0,.36-.36.51-.55.71a1.18,1.18,0,0,1-.88-.44c0-.39.28-.51.52-.71a.82.82,0,0,1,.91.44Z" transform="translate(-46 -197.99)"/><path class="cls-2" d="M116.46,211.76a1,1,0,0,1,0,2H104.69a1,1,0,0,1,0-2Zm-8.32,1.7c1.15,0,.06-1.39-.56-1.39h-1.15c-1.14,0-.06,1.39.56,1.39Zm4.82,0c1.15,0,.06-1.39-.56-1.39h-1.15c-1.15,0-.06,1.39.56,1.39Zm3.55-1.39h-.44c-1.15,0-.17,1.39.45,1.39s.81-1.39,0-1.39Z" transform="translate(-46 -197.99)"/><path class="cls-2" d="M115.42,225.25l2.25.86,2.21-.86-.87,3.31,1.75-.36-.6,2,.6,1.93-1.55-.43.67,3.57-2.21-.86-2.25.86.92-3.57-1.79.51.48-2-.48-1.92,1.71.28-.84-3.31Zm3.32,6c.51,0,.55-.7.55-1.3,0-1.36-1.08,0-1.63-1.28-.4,1.08-1.51.08-1.51,1.24,0,.8,0,1.34.79,1.34Zm-2.2-1.23c0,.52.7.17,1.21.17s1.22.35,1.22-.17c0-.74-.7-.48-1.22-.48s-1.21-.26-1.21.48Z" transform="translate(-46 -197.99)"/><polygon class="cls-2" points="64.16 32.13 64.16 31.71 63.79 31.64 64.08 31.33 63.9 30.99 64.28 31.03 64.52 30.62 64.75 31.03 65.14 30.99 64.95 31.33 65.25 31.64 64.88 31.71 64.88 32.13 64.52 31.86 64.16 32.13 64.16 32.13"/><polygon class="cls-2" points="62.42 34.37 62.42 33.95 62.04 33.88 62.34 33.58 62.16 33.24 62.54 33.28 62.77 32.87 63 33.27 63.4 33.24 63.21 33.58 63.51 33.88 63.13 33.95 63.13 34.37 62.77 34.11 62.42 34.37 62.42 34.37"/><polygon class="cls-2" points="65.38 34.09 65.38 33.67 65 33.6 65.3 33.29 65.11 32.95 65.5 32.99 65.73 32.58 65.96 32.99 66.36 32.95 66.17 33.29 66.47 33.6 66.09 33.67 66.09 34.09 65.73 33.82 65.38 34.09 65.38 34.09"/><polygon class="cls-2" points="65.73 35.77 65.73 35.53 65.52 35.49 65.68 35.31 65.58 35.12 65.8 35.15 65.93 34.91 66.06 35.14 66.28 35.12 66.18 35.31 66.34 35.49 66.13 35.53 66.13 35.77 65.93 35.62 65.73 35.77 65.73 35.77"/><polygon class="cls-2" points="62.98 37.69 62.98 36.97 62.34 36.84 62.84 36.32 62.53 35.74 63.19 35.81 63.59 35.11 63.98 35.8 64.65 35.74 64.34 36.32 64.84 36.84 64.2 36.97 64.2 37.69 63.59 37.23 62.98 37.69 62.98 37.69"/><polygon class="cls-2" points="64.38 0 65.78 3.44 69.31 2.39 67.52 5.63 70.53 7.77 66.9 8.38 67.12 12.09 64.38 9.6 61.64 12.09 61.86 8.38 58.23 7.77 61.24 5.63 59.45 2.39 62.98 3.44 64.38 0 64.38 0"/><path class="cls-2" d="M97.58,275c-.42.16-.58.28-.48.71l.5,2.11a1.9,1.9,0,0,1-.14,1.38,2.53,2.53,0,0,1-1.44.85,3,3,0,0,1-1.69,0A1.25,1.25,0,0,1,93.5,279L93,276.78c-.13-.55-.34-.52-.79-.45l0-.17,2.66-.64,0,.17c-.51.14-.75.21-.62.79l.52,2.21c.09.37.31,1.28,1.44,1a1.28,1.28,0,0,0,1.06-1.77l-.47-2c-.1-.41-.25-.61-.93-.47l0-.17,1.73-.41,0,.16Z" transform="translate(-46 -197.99)"/><path class="cls-2" d="M101.52,275.47a1.7,1.7,0,0,0-1.81-.88c-.42.1-.81.39-.71.82s.26.47,1,.6l1.26.23a1.4,1.4,0,0,1,1.14,1c.13.59-.2,1.5-1.65,1.82a6.7,6.7,0,0,1-1.4.08c-.17,0-.18.17-.19.28l-.23.05-.36-1.64.23-.05a1.68,1.68,0,0,0,1.93,1.06c1-.21.84-.88.82-1-.09-.45-.5-.52-1.06-.61l-.57-.1c-1.47-.24-1.6-.81-1.67-1.12s0-1.36,1.46-1.69a7.28,7.28,0,0,1,1.28-.06c.18,0,.2-.14.21-.28l.24-.05.32,1.43-.23.05Z" transform="translate(-46 -197.99)"/><path class="cls-2" d="M106.76,278.09l-2.88.28v-.17c.58-.1.77-.13.72-.7l-.34-3.56c-.56.08-1.39.19-1.45,1.29l-.23,0-.11-1.36,4.84-.46.14,1.36-.23,0c-.26-1.07-1.1-1-1.65-1l.33,3.57c.06.57.25.57.85.54l0,.17Z" transform="translate(-46 -197.99)"/><path class="cls-2" d="M113.48,278.09l-1.65,0-1.63-2.16H110l0,1.33c0,.54.17.56.7.64V278l-2.74-.06v-.17c.55,0,.71-.06.72-.61l.06-3c0-.58-.24-.6-.7-.64v-.17l2.61.05c.56,0,2.28.1,2.25,1.24,0,.84-.85,1-1.29,1.14l1.59,2a.4.4,0,0,0,.33.13v.17Zm-3.5-2.41c1.06,0,1.48-.13,1.5-1,0-.69-.31-1-1-1-.44,0-.46.07-.5.28l0,1.73Z" transform="translate(-46 -197.99)"/><path class="cls-2" d="M118.79,278.77l-2.6-.32,0-.17c.5,0,.65,0,.68-.18a3.77,3.77,0,0,0-.26-1l-1.81-.22a4.33,4.33,0,0,0-.46.82c0,.26.35.33.63.37l0,.17-1.62-.2,0-.17c.44,0,.58-.22.88-.69l2.24-3.47.23,0,1.34,3.77c.28.76.38,1,.76,1l0,.17Zm-2.25-1.89-.61-1.74-1,1.54,1.56.2Z" transform="translate(-46 -197.99)"/><path class="cls-2" d="M123.5,279.73l-4.6-.84,0-.17c.46,0,.7.06.77-.35l.59-3.23c.08-.44-.24-.52-.6-.6l0-.17,2.78.51,0,.17c-.56-.08-.81-.12-.92.46l-.57,3.16c-.06.32.11.41.64.5a2,2,0,0,0,2.25-.94l.23,0-.6,1.45Z" transform="translate(-46 -197.99)"/><path class="cls-2" d="M126.56,280.42l-2.78-.59,0-.16c.43.05.75.09.83-.32l.67-3.22c.09-.44-.28-.53-.64-.62l0-.17,2.77.58,0,.17c-.38-.06-.76-.14-.85.31l-.67,3.22c-.08.42.23.51.66.63l0,.17Z" transform="translate(-46 -197.99)"/><path class="cls-2" d="M132.18,281.14l-2.61-.27,0-.17c.5,0,.65,0,.67-.2a3.52,3.52,0,0,0-.28-.94l-1.81-.18a4,4,0,0,0-.44.83c0,.26.36.32.63.36l0,.17-1.63-.17v-.17c.44,0,.58-.23.87-.71l2.17-3.51.22,0,1.44,3.74c.28.76.39,1,.78,1l0,.17Zm-2.29-1.85-.65-1.73-.92,1.56,1.57.17Z" transform="translate(-46 -197.99)"/><path class="cls-2" d="M111.5,226.35c0-1.63-.92-.1-1.42-1.49-.38,1.17-1.48.18-1.48,1.45a1,1,0,0,0,.36.91v.48a.23.23,0,0,0,.23.23h1.73a.22.22,0,0,0,.22-.23v-.52a1.06,1.06,0,0,0,.36-.83Zm-1.42.31c-.47,0-1.12.33-1.12-.24,0-.8.55-.62,1-.62s1.22-.18,1.22.62c0,.57-.64.24-1.12.24Z" transform="translate(-46 -197.99)"/><path class="cls-2" d="M125.69,246.37a.67.67,0,1,0-.75-.66.72.72,0,0,0,.75.66Z" transform="translate(-46 -197.99)"/><path class="cls-2" d="M122.17,222.21a4.12,4.12,0,0,0-.35.7.36.36,0,1,0,.71,0s-.36-.7-.36-.7Z" transform="translate(-46 -197.99)"/><path class="cls-2" d="M98.21,222.21a4.12,4.12,0,0,0-.35.7.36.36,0,1,0,.72,0s-.37-.7-.37-.7Z" transform="translate(-46 -197.99)"/><path class="cls-2" d="M104.2,222.21a4.12,4.12,0,0,0-.35.7.38.38,0,0,0,.36.39.37.37,0,0,0,.35-.39s-.36-.7-.36-.7Z" transform="translate(-46 -197.99)"/><path class="cls-2" d="M110.19,222.21a4.12,4.12,0,0,0-.35.7.36.36,0,1,0,.71,0s-.36-.7-.36-.7Z" transform="translate(-46 -197.99)"/><path class="cls-2" d="M116.18,222.21a4.12,4.12,0,0,0-.35.7.36.36,0,1,0,.71,0s-.36-.7-.36-.7Z" transform="translate(-46 -197.99)"/><path class="cls-2" d="M98.23,230.43a4.12,4.12,0,0,1,.35.7.36.36,0,1,1-.72,0l.37-.7Z" transform="translate(-46 -197.99)"/><path class="cls-2" d="M98.23,238.42a4.12,4.12,0,0,1,.35.7.36.36,0,1,1-.72,0l.37-.7Z" transform="translate(-46 -197.99)"/><path class="cls-2" d="M99.18,244.74a3.86,3.86,0,0,1,.36.71.36.36,0,1,1-.72,0s.36-.71.36-.71Z" transform="translate(-46 -197.99)"/><path class="cls-2" d="M104.21,248.11a4.12,4.12,0,0,1,.35.7.36.36,0,1,1-.71,0l.36-.7Z" transform="translate(-46 -197.99)"/><path class="cls-2" d="M122.48,230.43a4.12,4.12,0,0,0-.35.7.36.36,0,1,0,.71,0l-.36-.7Z" transform="translate(-46 -197.99)"/><path class="cls-2" d="M122.48,238.42a4.12,4.12,0,0,0-.35.7.36.36,0,1,0,.71,0l-.36-.7Z" transform="translate(-46 -197.99)"/><path class="cls-2" d="M121.52,244.74a3.91,3.91,0,0,0-.35.71.36.36,0,1,0,.71,0s-.36-.71-.36-.71Z" transform="translate(-46 -197.99)"/><path class="cls-2" d="M116.49,248.11a4.12,4.12,0,0,0-.35.7.36.36,0,1,0,.72,0l-.37-.7Z" transform="translate(-46 -197.99)"/><path class="cls-2" d="M110.38,251.67a4.12,4.12,0,0,0-.35.7.36.36,0,1,0,.71,0l-.36-.7Z" transform="translate(-46 -197.99)"/><path class="cls-2" d="M120.13,239.75c.07.11.26.15.5.07l.22-.65s-.26-.3-.42-.26c-.64.16-1.32.23-1.7.84a1.26,1.26,0,0,0,.6,1c.23-.08.27.15.42.26a.27.27,0,0,1-.27.35c-.45-.46-1.24.15-1.58-.42.15-.57.46-1.22,0-1.75,0-.11.23-.23.12-.34-.19-.53-.76-.11-1.1-.11a1.42,1.42,0,0,0-1.35.68,1,1,0,0,0,.3.57c.15,0,.23,0,.26.15l-.37.23a.81.81,0,0,1,.15.41c-.27.12-.53-.26-.64-.45s0-.84-.38-.91a1.56,1.56,0,0,0-.33.11,1.12,1.12,0,0,0-.15.63,2.57,2.57,0,0,0,.15.68,6.43,6.43,0,0,1,1.42,1.39c-.34.68-.34,1.63-1.13,2a.64.64,0,0,0-.22.61l.18.15c.49-.27,1.44-.34,1.36-1.18a3.1,3.1,0,0,1,.72-1,.79.79,0,0,1,.86.42,1.49,1.49,0,0,1-1,1.14c-.08.08,0,.19,0,.3.15.27.56.16.79.12.64-.42.91-1.18,1.47-1.41.07.38-.75.5-.23.88.34-.08.79,0,1-.42-.26-.65.9-.95.19-1.52,0-.57.6-.79.56-1.4-.22-.61-.94-.61-1.13-1.18a.87.87,0,0,1,.8,0Z" transform="translate(-46 -197.99)"/><path class="cls-2" d="M92.6,246.66a.67.67,0,1,0-.75-.66.72.72,0,0,0,.75.66Z" transform="translate(-46 -197.99)"/><path class="cls-2" d="M53.75,269.35a.71.71,0,1,0-.73-.71.72.72,0,0,0,.73.71Z" transform="translate(-46 -197.99)"/><path class="cls-2" d="M78.48,274.86h0l-.05-.06h0v0a0,0,0,0,0,0,0h-.07a0,0,0,0,0,0,0v-.09s0,0,0,0h.07s.07,0,.07,0,0,0,0,0l0,.05Zm-.11-.07s0,0,0,0a0,0,0,0,0,0,0h0v.05Z" transform="translate(-46 -197.99)"/><path class="cls-2" d="M78.58,274.77a0,0,0,0,0,0,0l0,0,0,0,0,0s0,0,0,0a0,0,0,0,1,0,.05h-.06v-.05h0a0,0,0,0,0,.05,0s0,0,0,0,0,0,0,0h0s0,0,0-.05,0,0,.06,0h0v0Z" transform="translate(-46 -197.99)"/><path class="cls-2" d="M78.83,274.73l0,0,0,.11h0l0-.09h0l0,.09h0l0-.11,0,0h.06l0,.07h0l0-.06v0h0l0,.07h0l0-.07h0Z" transform="translate(-46 -197.99)"/><path class="cls-2" d="M78.84,274.86a.06.06,0,0,0,.06-.05h0a0,0,0,0,1,0,0s0,0,0,0,0,0,0,.06,0,.07-.1.07Zm0-.06h0v0s0,0,0,0,0,0,0,0,0,0,0,0Z" transform="translate(-46 -197.99)"/><path class="cls-2" d="M79,274.77h0a0,0,0,0,1,0,0s0,0-.07,0h0s0,0,0,0l.05,0a0,0,0,0,0,0,0l0,0h0l0-.07h.07v0H79v0Z" transform="translate(-46 -197.99)"/><path class="cls-2" d="M124.16,221.26v0H96.52v0h0l0,21.12c0,2.16.91,4,2.17,4.62l10.63,6.75a1.27,1.27,0,0,0,1.83.1L122,247c1.26-.58,2.17-2.46,2.17-4.62l0-21.12Zm-.78,21.4a4.74,4.74,0,0,1-1.79,3.69L111.17,253h-.06a1.24,1.24,0,0,1-.8.29,1.33,1.33,0,0,1-.82-.3l-10.4-6.61a4.77,4.77,0,0,1-1.79-3.69V222h26.08v20.66Z" transform="translate(-46 -197.99)"/><path class="cls-2" d="M114.06,252.05l.34-.16a1.55,1.55,0,0,0-.34.16Z" transform="translate(-46 -197.99)"/><path class="cls-2" d="M93.21,280.92l-2.61.3v-.17c.49-.09.63-.11.61-.33a3.9,3.9,0,0,0-.47-.86l-1.81.21a4.52,4.52,0,0,0-.26.91c0,.26.42.24.7.22l0,.17-1.64.19,0-.17c.43-.11.52-.35.7-.88l1.36-3.9.23,0,2.2,3.34c.44.68.6.89,1,.83l0,.17Zm-2.63-1.31-1-1.54L89,279.8l1.57-.19Z" transform="translate(-46 -197.99)"/><path class="cls-2" d="M139,271a4.19,4.19,0,0,0-2.7-2.48,3.47,3.47,0,0,0-3.45.88c-1.43,1.16-.43,3.08-.4,4.64,0,.32,0,.56-.27.72-5.75-.52-11.11-2-16.82-2.56-1.31-.23-2.63-.17-3.88-.43l-1.59-.17a67.12,67.12,0,0,0-14.56,1.64c-1,.32-2.11.4-3.1.76-.71-.12-1.31.4-2,.2l-1.3.3a1.12,1.12,0,0,1-.44,0c-.64-1.64,1.27-2.64.67-4.24a2.91,2.91,0,0,0-2.74-1.64,3.31,3.31,0,0,0-3.17,1.64c-.91,2,.24,4.08.59,6-.08.63.64,1.35,0,1.87a5.41,5.41,0,0,0-4.48-.92c-.47.24-1.35-.08-1.58.48,1.7.92,3.88.8,5.79.72a.53.53,0,0,1,.59,0c.16,1-.2,2.44.44,3.36a4.07,4.07,0,0,0,3,1.32c3.65-.12,6.9-1.2,10.24-2,.51,0,.91-.32,1.46-.32a29,29,0,0,1,5.64-.76,9.89,9.89,0,0,0-1.67,3.6c-.48,1.07.83,1.23,1.23,1.83-1.23.36-2.1,1.2-3.25,1.68-2.54-.08-4.68.88-7.06,1.16,0,.52.83.36.91.88-.12.36-.48.4-.75.6,0,.24,0,.28.23.32.24-.28.76-.08,1-.36.79,0,1.46-.24,2.22-.28a7.47,7.47,0,0,0,2-.8c.83-.24,1.35-.8,2.18-1,1.19,0,2.26-.4,3.37-.48v.24c-.91,1.48-1.86,3-2.81,4.4a.45.45,0,0,0,.27.64,2.11,2.11,0,0,0,1.55-.24c.83-1.44,1.59-2.8,2.26-4.28.28-1.36,1.27-2.08,2.26-3,.16-.08.4-.31.56-.08a17.49,17.49,0,0,0-1.9,2.8,3.38,3.38,0,0,0,.59,3.48c.48.4,1.19.28,1.82.32,1.55-.8,3.53.48,4.72-1,.72-.12.84.72,1.23,1.12.68.2,1.39.88,2.07.4,0-.44-.52-.84-.76-1.24-.47-.84-1.07-1.52-1.5-2.28a7.89,7.89,0,0,1-.64-1.48,12.86,12.86,0,0,0,2.14.84,13.29,13.29,0,0,1,2.15.64,7.12,7.12,0,0,0,2,1.52c1,.48,2.1.56,3.13,1,.4,0,1,.36,1.27,0a1.72,1.72,0,0,0-.59-.44c-.12-.52.71-.24,1-.64a.54.54,0,0,0-.46-.3c-.57-.31-2-.42-2.36-.62a9.3,9.3,0,0,1-1.39-.44c-2.38,0-3.69-2.16-5.59-3,.44-.4,1.11-.72,1.39-1.31a2.24,2.24,0,0,0,.12-2.12c-.36-1.24-2-1.08-2.86-1.76l.12-.12a16.45,16.45,0,0,1,4.28.56c3.81.52,7.34,2,11.31,2,2.18,0,4.92.12,6-2,.2-1.24.43-2.48.63-3.72.48-2,1.79-3.83,1.59-6ZM96.15,289.24l-.55-.52c.27-.36.87-.16,1.3-.4a6.92,6.92,0,0,1,3.38-.48c-1.19,1-2.74,1.08-4.13,1.4Zm24.76-.64a17.07,17.07,0,0,0,4.23,1c-.12.55-1.09,0-1,.8-1.23-.48-2.66-.72-3.57-1.68.07,0,.16-.16.31-.12Zm-37.21-17a2.83,2.83,0,0,1,1-2,3.33,3.33,0,0,1,3.13.12,1.53,1.53,0,0,1,.64.76,1.79,1.79,0,0,1-.6,1.8h-.4a4.37,4.37,0,0,1,.24-1.8c0-.48-.43-.52-.75-.72a2.32,2.32,0,0,0-1.79.4,1.82,1.82,0,0,0-.51,1.76c.28.44,0,1,.2,1.52l-.12.16a2.45,2.45,0,0,1-1-2Zm1.86,1.14c.59.44,1.43.24,2.14.36a1.49,1.49,0,0,1-.2,1.36c-.67-.16-1.54-.08-1.9-.72.08-.28-.12-.68,0-1Zm-.12-1.34c.12-.32,0-.8.44-.88.27-.08.71-.08.75.24a7.87,7.87,0,0,1-.2,1.4.92.92,0,0,1-1-.76ZM104,284.25a4.37,4.37,0,0,1,1.27-3.6,2.3,2.3,0,0,1,1.71.08c-1,.28-2.34.52-2.58,1.84,0,.52-.12.8.12,1.24.44.75,1.43.44,2,1a.52.52,0,0,1-.35.48,16.55,16.55,0,0,1-2.15-1.07ZM102.62,287c.95-.4,1.94-1.24,3-.88a5.43,5.43,0,0,1-3,.88Zm3.76.4a30.47,30.47,0,0,1-1.94,3.76c-.08.2-.4.24-.63.28,0-.56.55-1,.79-1.48.83-1.08,1.07-2.24,2-3.28.24.24-.24.4-.24.72Zm1-2.32v.16h-.08V285h.16a.24.24,0,0,0-.16,0ZM107,284a8.66,8.66,0,0,1-1.9-.47c-.4-.4,0-.84,0-1.28.55-.88,2.14-1.32,2.89-.52a4.23,4.23,0,0,1-1,2.27Zm.87,0a6.69,6.69,0,0,1,.64-1.67,3.28,3.28,0,0,1-.64,1.67Zm.44-3.23c-.52-.12-.8-.72-1.35-.72a3.18,3.18,0,0,1,1.51,0c.2.28-.12.52-.16.76Zm.47,1.2h0v-.44h0V282Zm0,1.84c0-.16.08-.36.12-.56.2-.2.4.16.48.28a.6.6,0,0,1-.6.28Zm.6-2.48a4.64,4.64,0,0,1,.59-1.48,2.3,2.3,0,0,1,1.07.16c.08.8,1.08,1.88,0,2.56-.35.16-.87.52-1.26.16a1.11,1.11,0,0,1-.4-1.4Zm2.89-1.12c-.08-.36.36-.08.52-.24l1.23.08c-.64-.08-1.43,1.4-1.75.16Zm2,.52c-.48.16-.84.72-1.31.84a1.61,1.61,0,0,1,1.31-.84Zm-1.67,2.48v.12h0v-.12Zm.08,2.43c0,.08,0,.2-.08.28l-.91-.72a1,1,0,0,1,1,.44Zm-1.07-1.23a.3.3,0,0,1,.36,0Zm-.56-.6c.16-.24.36-.6.64-.6,0,0,0,.08.08.12a2.07,2.07,0,0,1-.72.48Zm-.91-.08H110l.24-.24c.12.08,0,.16-.08.24Zm.12,1.51c.52-.56,1,.32,1.19.76.6.88,2.14,1.68,1.55,2.88-.76.68-2,0-2.78.56-.43,0-1.19.08-1.43-.36a24.06,24.06,0,0,1,1.47-3.84Zm-1.11.76.2-.32a16.84,16.84,0,0,1-1.31,2.88c-.24-1,.75-1.72,1.11-2.56Zm1.75,4.76c-.76,0-1.91.48-2.62-.16,0-.32-.32-.48-.28-.8.64-.24,1.19.52,1.79,0a16,16,0,0,1,2.77.08c.44.12,1.11-.72,1.19.12-.32,1.32-1.9.4-2.85.8Zm2.3-5.76v-.12h.08V285Zm.23,2.52c0,.4.44.56.2.92a1.27,1.27,0,0,1-.2-.92Zm1.12,2.4-.2.08c-.2-.16-.12-.6-.08-.84.24.2.43.48.28.76Zm2,1c0,.12-.24.12-.32,0a21.53,21.53,0,0,1-2.5-4.8l.16,0c1,1.56,1.71,3.28,2.66,4.8Zm1.47-3.68a.16.16,0,0,0-.08.16,4.55,4.55,0,0,1-2.78-1.24l0-.2a7.58,7.58,0,0,1,2.9,1.28Zm-1-5.31c.48.12.52.64.56,1a2.36,2.36,0,0,1-2.9,2.11,2.51,2.51,0,0,0,2.38-1.35l0-1.8Zm-.87-.16a2.66,2.66,0,0,1,.36,1.76c-.4.76-1.19.76-1.9.92a1.23,1.23,0,0,1-.92-.29.4.4,0,0,0-.16-.39c.12-.52-.91-1-.19-1.48.63-.6,2.14-2,2.81-.52Zm20.15-2.92c-.31.4,0,1-.43,1.4,0,.72-.6,1.08-1.11,1.36-4.73,1-9.37-.56-13.93-1.36a48.45,48.45,0,0,0-20.35-.32c-3,.56-6,1.28-9,2.12A13,13,0,0,1,86,282c-1.43-.68-.84-2.52-1.27-3.8a20.47,20.47,0,0,0-.32-2.75,2.36,2.36,0,0,1-.16-1c.6.08,1.19.52,1.83.68,3.33.64,6.3-.44,9.4-1a68.29,68.29,0,0,1,9.16-1.4,58.57,58.57,0,0,1,10.63.36c1.11,0,2.06.32,3.13.4,2.23.28,4.29.88,6.55,1a10.54,10.54,0,0,0,1.19.2c3.57.56,7.57,1.56,11,0a29.23,29.23,0,0,1-.8,4.15Zm-1.11-4.87c0,.64-.55.48-.87.72h-.95a2.16,2.16,0,0,1-.12-1.12,8,8,0,0,1,1.94.4Zm-.43-1c.43-.44-.12-3,1.11-1.32,0,.32,0,.8-.28,1s-.52.48-.83.28Zm3.21-.4a2.28,2.28,0,0,1-1.71,1.36c0-1,.91-1.64.6-2.72a2.39,2.39,0,0,0-2.5-.8c-.36.24-.2.64-.32,1l-.16,1.32c-.79,0-.83-.72-1.07-1.28a2.32,2.32,0,0,1,1.23-2.08,2.72,2.72,0,0,1,2.3.08,1.78,1.78,0,0,1,1.31.84c.6.56.44,1.56.32,2.28Z" transform="translate(-46 -197.99)"/><rect class="cls-2" x="140.81" y="59.02" width="248.94" height="1.28"/><path class="cls-2" d="M203.05,268.88v5.6h-.43a7.12,7.12,0,0,0-2.36-3.49,5.5,5.5,0,0,0-3.43-1.19,4.4,4.4,0,0,0-3,1,5.45,5.45,0,0,0-1.68,2.79,13.78,13.78,0,0,0-.49,3.68,13.42,13.42,0,0,0,.54,4,4.54,4.54,0,0,0,1.73,2.53,5,5,0,0,0,2.86.81,6,6,0,0,0,1.17-.12,7.92,7.92,0,0,0,1.25-.36v-3.31a3.58,3.58,0,0,0-.13-1.2,1.22,1.22,0,0,0-.54-.51,2.09,2.09,0,0,0-1-.22h-.41v-.43h7.73v.43a3.19,3.19,0,0,0-1.23.25,1.09,1.09,0,0,0-.53.6,3.2,3.2,0,0,0-.11,1.08v3.31a15.64,15.64,0,0,1-3.17,1,16.57,16.57,0,0,1-3.41.35,10,10,0,0,1-3.76-.61,9.42,9.42,0,0,1-2.64-1.62,7.64,7.64,0,0,1-1.78-2.26,7.84,7.84,0,0,1-.82-3.62,8.17,8.17,0,0,1,2.52-6.06,8.67,8.67,0,0,1,6.34-2.47,10.61,10.61,0,0,1,2.13.19,9.92,9.92,0,0,1,1.66.54,6.82,6.82,0,0,0,1.38.43.94.94,0,0,0,.6-.23,2.24,2.24,0,0,0,.52-.92Z" transform="translate(-46 -197.99)"/><path class="cls-1" d="M214.77,279.26h-6a5.67,5.67,0,0,0,1.16,3.45,2.45,2.45,0,0,0,2,1,2.26,2.26,0,0,0,1.27-.38,5.06,5.06,0,0,0,1.24-1.42l.39.26a6.55,6.55,0,0,1-2,2.57,4.24,4.24,0,0,1-2.49.75,4.14,4.14,0,0,1-3.69-1.87,6.64,6.64,0,0,1-1-3.75,6.19,6.19,0,0,1,1.48-4.36,4.56,4.56,0,0,1,3.48-1.63,3.74,3.74,0,0,1,2.88,1.37,6.19,6.19,0,0,1,1.32,4Zm-2.88-.78a10.55,10.55,0,0,0-.21-2.59,2.1,2.1,0,0,0-.63-1.07,1,1,0,0,0-.66-.21,1.16,1.16,0,0,0-1,.6,5.15,5.15,0,0,0-.69,2.86v.41Z" transform="translate(-46 -197.99)"/><path class="cls-1" d="M221.31,273.85a5.08,5.08,0,0,1,2.66.74,4.73,4.73,0,0,1,1.87,2.1,6.8,6.8,0,0,1,.64,3,6.31,6.31,0,0,1-1.18,3.91,4.69,4.69,0,0,1-4,1.89,4.51,4.51,0,0,1-3.81-1.73,6.43,6.43,0,0,1-1.34-4,6.51,6.51,0,0,1,1.36-4.1,4.52,4.52,0,0,1,3.75-1.76Zm.05.83a1.35,1.35,0,0,0-1,.46,3.18,3.18,0,0,0-.56,1.78c-.09.88-.13,2.11-.13,3.69a15.78,15.78,0,0,0,.16,2.35,2.3,2.3,0,0,0,.55,1.26,1.34,1.34,0,0,0,1.84.14,1.89,1.89,0,0,0,.61-1.11,26.4,26.4,0,0,0,.24-4.5,10.84,10.84,0,0,0-.23-2.73,2.11,2.11,0,0,0-.65-1.09,1.22,1.22,0,0,0-.8-.25Z" transform="translate(-46 -197.99)"/><path class="cls-2" d="M234.83,273.87l.18,3.74h-.4a5.94,5.94,0,0,0-1.49-2.27,2.43,2.43,0,0,0-1.52-.61,1.12,1.12,0,0,0-.82.33,1,1,0,0,0-.11,1.35,11.33,11.33,0,0,0,2.1,1.65,8.26,8.26,0,0,1,2.26,2,3.12,3.12,0,0,1,.55,1.81,3.82,3.82,0,0,1-.46,1.8,3.23,3.23,0,0,1-1.29,1.35,3.67,3.67,0,0,1-1.84.46,6.28,6.28,0,0,1-2.09-.49,2.17,2.17,0,0,0-.48-.13c-.26,0-.48.2-.65.59h-.39l-.18-3.94h.4a5.08,5.08,0,0,0,1.44,2.32,2.75,2.75,0,0,0,1.74.77,1.3,1.3,0,0,0,.92-.33,1.16,1.16,0,0,0,.36-.85,1.46,1.46,0,0,0-.35-1,9,9,0,0,0-1.57-1.24,12.06,12.06,0,0,1-2.32-1.9,3.28,3.28,0,0,1-.77-2.12,3.42,3.42,0,0,1,.86-2.29,3.14,3.14,0,0,1,2.53-1,3.82,3.82,0,0,1,1.73.43,1.11,1.11,0,0,0,.51.18.66.66,0,0,0,.34-.08,2.22,2.22,0,0,0,.41-.51Z" transform="translate(-46 -197.99)"/><path class="cls-2" d="M245.71,282.31l.36.28a5.57,5.57,0,0,1-1.93,2.17,4.63,4.63,0,0,1-2.45.7,4.27,4.27,0,0,1-3.51-1.65,6.2,6.2,0,0,1-1.31-4,6.66,6.66,0,0,1,1.2-3.94,4.58,4.58,0,0,1,4-2,4,4,0,0,1,2.69.86,2.45,2.45,0,0,1,1,1.91,1.42,1.42,0,0,1-.41,1.06,1.4,1.4,0,0,1-1.05.4,1.54,1.54,0,0,1-1.15-.46,2.62,2.62,0,0,1-.55-1.62,1.83,1.83,0,0,0-.34-1,.85.85,0,0,0-.63-.29,1.16,1.16,0,0,0-1,.6A5,5,0,0,0,240,278a8.94,8.94,0,0,0,.49,3,4.55,4.55,0,0,0,1.34,2.1,2.44,2.44,0,0,0,1.53.5,2.34,2.34,0,0,0,1.09-.27,5.12,5.12,0,0,0,1.22-1Z" transform="translate(-46 -197.99)"/><path class="cls-1" d="M249.81,268.87a1.83,1.83,0,0,1,1.82,1.82,1.81,1.81,0,0,1-3.09,1.27,1.73,1.73,0,0,1-.53-1.27,1.75,1.75,0,0,1,.53-1.28,1.7,1.7,0,0,1,1.27-.54Zm1.65,5.31v8.68a2.66,2.66,0,0,0,.26,1.49,1.48,1.48,0,0,0,1.06.36v.43h-5.92v-.43a1.4,1.4,0,0,0,1.08-.42,2.58,2.58,0,0,0,.23-1.43v-6.4a2.55,2.55,0,0,0-.27-1.47,1.4,1.4,0,0,0-1-.38v-.43Z" transform="translate(-46 -197.99)"/><path class="cls-1" d="M262.41,279.26h-6a5.61,5.61,0,0,0,1.16,3.45,2.42,2.42,0,0,0,1.94,1,2.31,2.31,0,0,0,1.28-.38,5.21,5.21,0,0,0,1.23-1.42l.4.26a6.65,6.65,0,0,1-2,2.57,4.27,4.27,0,0,1-2.5.75,4.16,4.16,0,0,1-3.69-1.87,6.64,6.64,0,0,1-1-3.75,6.24,6.24,0,0,1,1.48-4.36,4.56,4.56,0,0,1,3.48-1.63,3.74,3.74,0,0,1,2.88,1.37,6.25,6.25,0,0,1,1.33,4Zm-2.89-.78a10.55,10.55,0,0,0-.21-2.59,2.1,2.1,0,0,0-.63-1.07,1,1,0,0,0-.66-.21,1.15,1.15,0,0,0-1,.6,5.15,5.15,0,0,0-.69,2.86v.41Z" transform="translate(-46 -197.99)"/><path class="cls-2" d="M267.54,274.18v1.42a6.52,6.52,0,0,1,1.61-1.33,3.45,3.45,0,0,1,1.67-.42,2.64,2.64,0,0,1,1.77.6,2.82,2.82,0,0,1,.93,1.46,11,11,0,0,1,.19,2.57v4.27a3.51,3.51,0,0,0,.22,1.58,1.39,1.39,0,0,0,1,.38v.43h-5.54v-.43a1.13,1.13,0,0,0,.89-.51,3.28,3.28,0,0,0,.19-1.45v-4.88a7.91,7.91,0,0,0-.11-1.7,1,1,0,0,0-.36-.54.87.87,0,0,0-.55-.2c-.67,0-1.3.48-1.87,1.44v5.88a3.3,3.3,0,0,0,.22,1.55,1.15,1.15,0,0,0,.85.41v.43h-5.54v-.43a1.32,1.32,0,0,0,1-.44,3.17,3.17,0,0,0,.2-1.52v-6.19A3.05,3.05,0,0,0,264,275a1.38,1.38,0,0,0-.95-.4v-.43Z" transform="translate(-46 -197.99)"/><path class="cls-2" d="M284.63,282.31l.36.28a5.49,5.49,0,0,1-1.93,2.17,4.6,4.6,0,0,1-2.45.7,4.27,4.27,0,0,1-3.51-1.65,6.2,6.2,0,0,1-1.31-4,6.66,6.66,0,0,1,1.2-3.94,4.58,4.58,0,0,1,4-2,4,4,0,0,1,2.7.86,2.47,2.47,0,0,1,1,1.91,1.38,1.38,0,0,1-.41,1.06,1.4,1.4,0,0,1-1.05.4,1.54,1.54,0,0,1-1.15-.46,2.62,2.62,0,0,1-.55-1.62,1.83,1.83,0,0,0-.34-1,.85.85,0,0,0-.63-.29,1.13,1.13,0,0,0-1,.6A5,5,0,0,0,279,278a8.94,8.94,0,0,0,.49,3,4.48,4.48,0,0,0,1.35,2.1,2.42,2.42,0,0,0,1.52.5,2.31,2.31,0,0,0,1.09-.27,5.12,5.12,0,0,0,1.22-1Z" transform="translate(-46 -197.99)"/><path class="cls-1" d="M295.38,279.26h-6a5.67,5.67,0,0,0,1.16,3.45,2.45,2.45,0,0,0,1.94,1,2.29,2.29,0,0,0,1.28-.38,5.21,5.21,0,0,0,1.23-1.42l.4.26a6.55,6.55,0,0,1-2,2.57,4.26,4.26,0,0,1-2.49.75,4.17,4.17,0,0,1-3.7-1.87,6.64,6.64,0,0,1-1-3.75,6.24,6.24,0,0,1,1.47-4.36,4.57,4.57,0,0,1,3.48-1.63,3.78,3.78,0,0,1,2.89,1.37,6.19,6.19,0,0,1,1.32,4Zm-2.88-.78a10.55,10.55,0,0,0-.21-2.59,2.18,2.18,0,0,0-.64-1.07,1,1,0,0,0-.65-.21,1.16,1.16,0,0,0-1,.6,5.15,5.15,0,0,0-.69,2.86v.41Z" transform="translate(-46 -197.99)"/><path class="cls-1" d="M310.73,280.61h-5.62l-.66,1.55a3.39,3.39,0,0,0-.33,1.28,1.06,1.06,0,0,0,.54,1,4.34,4.34,0,0,0,1.55.28v.44h-5.28v-.44a2.38,2.38,0,0,0,1.41-.7,9.81,9.81,0,0,0,1.36-2.4l5.68-12.68h.22l5.73,13a8.07,8.07,0,0,0,1.35,2.33,1.87,1.87,0,0,0,1.13.42v.44h-7.69v-.44h.31a2.38,2.38,0,0,0,1.31-.26.61.61,0,0,0,.25-.53,1.35,1.35,0,0,0-.07-.44,8.78,8.78,0,0,0-.35-.88l-.84-2Zm-.4-.86L308,274.27l-2.44,5.48Z" transform="translate(-46 -197.99)"/><path class="cls-2" d="M328,274.18v8.58a3.17,3.17,0,0,0,.23,1.57,1.36,1.36,0,0,0,.95.38v.43h-4.47v-1.47a5.52,5.52,0,0,1-1.57,1.37,3.65,3.65,0,0,1-1.75.42,2.62,2.62,0,0,1-1.66-.56,2.92,2.92,0,0,1-1-1.33,10.09,10.09,0,0,1-.24-2.66v-4.35a3,3,0,0,0-.24-1.55,1.36,1.36,0,0,0-.95-.4v-.43h4.47v7.49a6.69,6.69,0,0,0,.1,1.51,1,1,0,0,0,.35.51,1,1,0,0,0,.57.18,1.35,1.35,0,0,0,.76-.22,5,5,0,0,0,1.12-1.23v-5.86a3.05,3.05,0,0,0-.23-1.55,1.38,1.38,0,0,0-.95-.4v-.43Z" transform="translate(-46 -197.99)"/><path class="cls-2" d="M337.36,273.87l.17,3.74h-.4a5.82,5.82,0,0,0-1.48-2.27,2.44,2.44,0,0,0-1.53-.61,1.14,1.14,0,0,0-.82.33,1,1,0,0,0-.34.74,1,1,0,0,0,.24.61,11.5,11.5,0,0,0,2.09,1.65,8.34,8.34,0,0,1,2.27,2,3.19,3.19,0,0,1,.55,1.81,3.82,3.82,0,0,1-.46,1.8,3.23,3.23,0,0,1-1.29,1.35,3.7,3.7,0,0,1-1.84.46,6.38,6.38,0,0,1-2.1-.49,1.93,1.93,0,0,0-.48-.13c-.25,0-.47.2-.64.59h-.39l-.19-3.94h.4a5.16,5.16,0,0,0,1.44,2.32,2.78,2.78,0,0,0,1.75.77,1.26,1.26,0,0,0,.91-.33,1.13,1.13,0,0,0,.37-.85,1.46,1.46,0,0,0-.35-1,9.48,9.48,0,0,0-1.57-1.24,12.06,12.06,0,0,1-2.32-1.9,3.29,3.29,0,0,1-.78-2.12,3.43,3.43,0,0,1,.87-2.29,3.14,3.14,0,0,1,2.53-1,3.78,3.78,0,0,1,1.72.43,1.15,1.15,0,0,0,.52.18.68.68,0,0,0,.34-.08,2.54,2.54,0,0,0,.41-.51Z" transform="translate(-46 -197.99)"/><path class="cls-2" d="M343.64,270.17v4h2.6v1.16h-2.6v6.76a6,6,0,0,0,.08,1.23,1,1,0,0,0,.32.45.69.69,0,0,0,.41.16c.51,0,1-.39,1.44-1.16l.35.26a3.2,3.2,0,0,1-3.08,2.25,2.71,2.71,0,0,1-1.77-.58,2.54,2.54,0,0,1-.91-1.3,10.69,10.69,0,0,1-.12-2.15v-5.92h-1.43v-.41a15.7,15.7,0,0,0,2.51-2.19,13.18,13.18,0,0,0,1.81-2.57Z" transform="translate(-46 -197.99)"/><path class="cls-2" d="M352.07,274.18v2.48a8,8,0,0,1,1.91-2.25,2.84,2.84,0,0,1,1.58-.56,1.39,1.39,0,0,1,1.05.41,1.58,1.58,0,0,1,.39,1.14,1.77,1.77,0,0,1-.38,1.22,1.17,1.17,0,0,1-.92.43,1.55,1.55,0,0,1-1.07-.4c-.31-.26-.49-.41-.54-.44a.5.5,0,0,0-.27-.07,1,1,0,0,0-.65.25,2.44,2.44,0,0,0-.72,1.14,8,8,0,0,0-.38,2.51v3.17a2.5,2.5,0,0,0,.09.86,1,1,0,0,0,.41.47,2.5,2.5,0,0,0,.93.17v.43h-5.92v-.43a1.31,1.31,0,0,0,1-.38,3.69,3.69,0,0,0,.25-1.77V276.5a4.79,4.79,0,0,0-.09-1.2.93.93,0,0,0-.34-.48,1.86,1.86,0,0,0-.79-.21v-.43Z" transform="translate(-46 -197.99)"/><path class="cls-1" d="M363.5,283.52a5.75,5.75,0,0,1-3.59,1.77,2.15,2.15,0,0,1-1.56-.61,2.09,2.09,0,0,1-.62-1.55,3,3,0,0,1,1.07-2.25,20.45,20.45,0,0,1,4.7-2.67v-1.1a4.86,4.86,0,0,0-.14-1.56,1.11,1.11,0,0,0-.5-.56,1.46,1.46,0,0,0-.84-.25,2.15,2.15,0,0,0-1.26.34.61.61,0,0,0-.3.49,1,1,0,0,0,.33.61,1.54,1.54,0,0,1,.44,1,1.29,1.29,0,0,1-.43,1,1.55,1.55,0,0,1-1.12.4,1.8,1.8,0,0,1-1.24-.45,1.34,1.34,0,0,1-.49-1,2.41,2.41,0,0,1,.67-1.61,4.15,4.15,0,0,1,1.86-1.18,7.72,7.72,0,0,1,2.48-.41,4.07,4.07,0,0,1,2.47.67,3,3,0,0,1,1.18,1.43,9.34,9.34,0,0,1,.16,2.26v4.25a4.39,4.39,0,0,0,.06,1,.53.53,0,0,0,.18.28.39.39,0,0,0,.27.1c.2,0,.41-.15.62-.44l.35.29A4.34,4.34,0,0,1,367,284.9a2.61,2.61,0,0,1-1.42.39,2.23,2.23,0,0,1-1.46-.44,2,2,0,0,1-.65-1.33Zm0-.86V279a6.86,6.86,0,0,0-2.11,1.78,2.16,2.16,0,0,0-.45,1.27,1.36,1.36,0,0,0,.38.95,1.08,1.08,0,0,0,.82.32,2.21,2.21,0,0,0,1.36-.66Z" transform="translate(-46 -197.99)"/><path class="cls-2" d="M373.51,269.25v13.61a2.64,2.64,0,0,0,.27,1.49,1.47,1.47,0,0,0,1.05.36v.43h-5.92v-.43a1.38,1.38,0,0,0,1.08-.42,2.58,2.58,0,0,0,.23-1.43V271.52a2.67,2.67,0,0,0-.26-1.47,1.43,1.43,0,0,0-1-.37v-.43Z" transform="translate(-46 -197.99)"/><path class="cls-1" d="M378.76,268.87a1.73,1.73,0,0,1,1.29.54,1.75,1.75,0,0,1,.53,1.28,1.83,1.83,0,0,1-1.82,1.8,1.81,1.81,0,0,1,0-3.62Zm1.64,5.31v8.68a2.64,2.64,0,0,0,.27,1.49,1.48,1.48,0,0,0,1.06.36v.43h-5.92v-.43a1.41,1.41,0,0,0,1.08-.42,2.68,2.68,0,0,0,.23-1.43v-6.4a2.55,2.55,0,0,0-.27-1.47,1.42,1.42,0,0,0-1-.38v-.43Z" transform="translate(-46 -197.99)"/><path class="cls-1" d="M388.6,283.52a5.78,5.78,0,0,1-3.6,1.77,2.18,2.18,0,0,1-1.56-.61,2.13,2.13,0,0,1-.62-1.55,3,3,0,0,1,1.08-2.25,20.45,20.45,0,0,1,4.7-2.67v-1.1a5.19,5.19,0,0,0-.14-1.56,1.16,1.16,0,0,0-.5-.56,1.49,1.49,0,0,0-.85-.25,2.12,2.12,0,0,0-1.25.34.62.62,0,0,0-.31.49,1,1,0,0,0,.33.61,1.5,1.5,0,0,1,.45,1,1.3,1.3,0,0,1-.44,1,1.53,1.53,0,0,1-1.11.4,1.79,1.79,0,0,1-1.24-.45,1.35,1.35,0,0,1-.5-1,2.46,2.46,0,0,1,.67-1.61,4.24,4.24,0,0,1,1.87-1.18,7.63,7.63,0,0,1,2.48-.41,4,4,0,0,1,2.46.67,3.07,3.07,0,0,1,1.19,1.43,9.91,9.91,0,0,1,.16,2.26v4.25a4.39,4.39,0,0,0,.06,1,.58.58,0,0,0,.17.28.39.39,0,0,0,.27.1c.21,0,.41-.15.63-.44l.35.29a4.34,4.34,0,0,1-1.22,1.26,2.63,2.63,0,0,1-1.42.39,2.21,2.21,0,0,1-1.46-.44,2,2,0,0,1-.65-1.33Zm0-.86V279a6.63,6.63,0,0,0-2.11,1.78,2.18,2.18,0,0,0-.46,1.27,1.33,1.33,0,0,0,.39.95,1.08,1.08,0,0,0,.82.32,2.26,2.26,0,0,0,1.36-.66Z" transform="translate(-46 -197.99)"/></svg>